<?xml version="1.0" encoding="utf-8"?>
<!-- Generator: Adobe Illustrator 28.0.0, SVG Export Plug-In . SVG Version: 6.00 Build 0)  -->
<svg version="1.1" id="_レイヤー_2" xmlns="http://www.w3.org/2000/svg" xmlns:xlink="http://www.w3.org/1999/xlink" x="0px"
	 y="0px" viewBox="0 0 73.5 16.9" style="enable-background:new 0 0 73.5 16.9;" xml:space="preserve">
<style type="text/css">
	.st0{fill:#E20012;}
	.st1{fill:#FFFFFF;}
	.st2{fill:none;stroke:#FFFFFF;stroke-width:0.1835;}
</style>
<g id="equipment">
	<g>
		<g>
			<rect class="st0" width="73.5" height="16.9"/>
			<g>
				<polygon class="st1" points="20.4,9.2 22.8,3.5 18.2,3.5 15.8,9.1 				"/>
				<polygon class="st1" points="25.7,13.6 29.5,3.6 25.3,3.6 21.5,13.6 				"/>
				<polyline class="st1" points="9.2,3.5 5,3.5 2.7,9.7 6.9,9.7 8,6.7 10.8,6.7 8,13.6 12.8,13.6 16.9,3.5 9.2,3.5 				"/>
				<polygon class="st1" points="42.3,6.1 38.5,6.1 39.5,3.6 34.9,3.6 33.9,6.1 29.9,6.1 28.6,9.8 32.4,9.8 30.8,13.6 35.4,13.6 
					37,9.8 41,9.8 				"/>
				<polygon class="st1" points="45.2,10.3 46.7,6.1 49.4,6.1 47.9,10.3 				"/>
				<polygon class="st1" points="41.9,10.3 43.4,6.1 46.1,6.1 44.7,10.3 				"/>
				<polygon class="st1" points="54.2,6.1 51.3,13.6 47.3,13.6 50.2,6.1 				"/>
				<polygon class="st1" points="68.1,3.5 68.1,3.5 68.1,3.5 63.4,3.5 56.4,3.5 55.2,6.6 62,6.6 59,13.6 63.8,13.6 66.8,6.6 
					66.9,6.6 				"/>
				<path class="st1" d="M68.5,8.2c-1.4,0-2.6,1.2-2.6,2.6c0,1.4,1.2,2.6,2.6,2.6c1.4,0,2.6-1.2,2.6-2.6C71.1,9.4,69.9,8.2,68.5,8.2
					z M68.5,11.8c-0.6,0-1-0.5-1-1c0-0.6,0.5-1,1-1c0.6,0,1,0.5,1,1C69.5,11.4,69.1,11.8,68.5,11.8z"/>
			</g>
			<g>
				<path class="st1" d="M69.8,2.1c0.2,0,0.4,0,0.6,0c0.3,0,0.5,0,0.6,0.2c0.1,0.1,0.1,0.2,0.1,0.3C71.2,2.8,71,3,70.7,3v0
					c0.2,0,0.3,0.2,0.3,0.3c0.1,0.3,0.1,0.5,0.2,0.6H71c0-0.1-0.1-0.2-0.1-0.5c-0.1-0.2-0.2-0.3-0.4-0.4H70v0.8h-0.2V2.1z M70,2.9
					h0.4c0.3,0,0.5-0.1,0.5-0.4c0-0.3-0.2-0.4-0.6-0.4c-0.2,0-0.3,0-0.4,0V2.9z"/>
				<path class="st2" d="M71.8,2.9c0,0.8-0.6,1.4-1.4,1.4c-0.8,0-1.4-0.6-1.4-1.4c0-0.8,0.6-1.4,1.4-1.4C71.1,1.5,71.8,2.1,71.8,2.9
					z"/>
			</g>
		</g>
	</g>
</g>
</svg>
