<?xml version="1.0" encoding="utf-8"?>
<!-- Generator: Adobe Illustrator 28.0.0, SVG Export Plug-In . SVG Version: 6.00 Build 0)  -->
<svg version="1.1" id="_レイヤー_2" xmlns="http://www.w3.org/2000/svg" xmlns:xlink="http://www.w3.org/1999/xlink" x="0px"
	 y="0px" viewBox="0 0 60.9 14" style="enable-background:new 0 0 60.9 14;" xml:space="preserve">
<style type="text/css">
	.st0{fill:#005FA8;}
</style>
<g id="equipment">
	<g>
		<g>
			<path class="st0" d="M0,0.7h13.8v4.6h-1.7c0-2.1-0.5-3.3-3.6-3.3v9.1c0,0,0.1,0.5,0.7,0.5h1.9v1.5H2.8v-1.5h1.9
				c0.4,0,0.7,0,0.7-0.4V2.1c-1,0-3.7-0.4-3.7,3.3H0C0,5.4,0,0.7,0,0.7z"/>
			<path class="st0" d="M22.3,0.1c-5,0-7.4,3.1-7.4,6.9c0,4.5,3.3,6.9,7.4,6.9c4.1,0,7.4-2.4,7.4-6.9C29.8,3.2,27.6,0.1,22.3,0.1z
				 M22.3,12.2c-2.5,0-4-2.3-4-5.2s0.9-5.2,4-5.2c3,0,4,2.3,4,5.2S24.9,12.2,22.3,12.2z"/>
			<path class="st0" d="M31,0.7h13.8v4.6h-1.7c0-2.1-0.5-3.3-3.6-3.3v9.1c0,0,0.1,0.5,0.7,0.5h1.9v1.5h-8.4v-1.5h1.9
				c0.4,0,0.7,0,0.7-0.4V2.1c-1,0-3.7-0.4-3.7,3.3H31C31,5.4,31,0.7,31,0.7z"/>
			<path class="st0" d="M53.3,0.1c-5,0-7.4,3.1-7.4,6.9c0,4.5,3.3,6.9,7.4,6.9c4.1,0,7.4-2.4,7.4-6.9C60.8,3.2,58.6,0.1,53.3,0.1z
				 M53.3,12.2c-2.5,0-4-2.3-4-5.2s0.9-5.2,4-5.2c3,0,4,2.3,4,5.2S55.9,12.2,53.3,12.2z"/>
		</g>
	</g>
</g>
</svg>
