<?xml version="1.0" encoding="UTF-8"?>
<svg id="_レイヤー_2" data-name="レイヤー 2" xmlns="http://www.w3.org/2000/svg" viewBox="0 0 325 110">
  <defs>
    <style>
      .cls-1 {
        fill: #004859;
      }

      .cls-1, .cls-2 {
        stroke-width: 0px;
      }

      .cls-2 {
        fill: none;
      }
    </style>
  </defs>
  <g id="_ヘッダー" data-name="ヘッダー">
    <g>
      <g>
        <path class="cls-1" d="m71.6218649,58.862904c.1037377.8630397.1557701,1.3604518.1557701,1.4909151l-.0778851,1.7458966c-.0261799.7454576-.0582502,1.2230524-.0971927,1.4321241-.1165004.0525156-.2136931.0786083-.2915781.0786083l-.1747505-.0393041c-.4149507-1.8307804-1.1178799-3.1648092-2.1091147-4.0020865-.9912348-.8366168-2.1997624-1.2554206-3.6249284-1.2554206-1.4771984,0-2.6889985.4188038-3.6347458,1.2554206-.9460746.8372773-1.4189482,1.8116237-1.4189482,2.9230392,0,.8504888.3305207,1.6283145.9912348,2.3344679.6610414.7061534,2.3519328,1.7630716,5.0730017,3.1700938,2.0731174,1.0813594,3.557188,1.966198,4.4512301,2.6531948.8940421.6873271,1.5678461,1.482658,2.0214122,2.3859927s.680349,1.9113704.680349,3.024107c0,1.4007468-.3596458,2.7166099-1.0786101,3.9469286-.7192916,1.230649-1.6882735,2.1571038-2.905964,2.7787038-1.2183451.6216-2.8313515.9327302-4.8400009.9327302-1.7491416,0-3.4275977-.2814045-5.0340591-.8435528-.9460746-.3398652-1.5226859-.6146639-1.729834-.8240659-.2074754-.2087413-.311213-.4313547-.311213-.6668493,0-.1436748.0127627-.3266538.0389425-.5492671.1812955-1.5431005.2784882-2.8117325.2915781-3.8058961.0258526-.6146639.0710129-.9740161.1361353-1.0790474.0517052-.0911592.1488979-.1370691.2915781-.1370691.1165004,0,.2104206.042607.2817607.1274907.0710129.085214.1197728.2450729.1459527.4805675.142353,1.6084973.8809522,3.0475574,2.2157976,4.3158591,1.3217555,1.268632,2.8182615,1.9027829,4.4898454,1.9027829,1.0236324,0,1.9661072-.2156774,2.828079-.6473624.8616445-.4313547,1.5354486-1.0559273,2.0214122-1.8733874.4859636-.8171298.729109-1.6118001.729109-2.3836807,0-1.0592301-.3694632-2.0269708-1.1080624-2.903222-.7385992-.8759209-2.2226698-1.89948-4.4512301-3.0703472-2.2288875-1.1702065-3.6802333-2.0236679-4.3537101-2.5600539-1.0884275-.8759209-1.9049118-1.8046877-2.4491256-2.7856398-.4018608-.7583388-.6024639-1.6411957-.6024639-2.6482405,0-1.8178992.7124193-3.3576968,2.1379125-4.6200534,1.4254932-1.2620263,3.3366227-1.8928743,5.734043-1.8928743,1.3217555,0,2.4618882.1502805,3.4210527.4511719.6996567.2351643,1.418621.6212697,2.1572202,1.1573253Z"/>
        <path class="cls-1" d="m89.0065984,70.5352436c0-1.3340288.1587154-2.5207497.4761461-3.5604929s.8521543-2.167673,1.6035162-3.3841197c.7513619-1.2161164,1.6588211-2.2330698,2.7213961-3.0505299,1.0622477-.8171298,2.5332283-1.5397976,4.4122875-2.167673,1.3217555-.431685,2.9933393-.6473624,5.0147515-.6473624,1.3603708,0,2.6919437.1833092,3.9940643.5492671,1.3024479.3662882,2.4847956.8762512,3.5473705,1.5302193,1.0622477.6539681,2.1251498,1.6610129,3.1877248,3.0211344.7385992.941648,1.2955756,1.9552985,1.6715838,3.0406213.4921813,1.4258486.7385992,2.8969465.7385992,4.4139543,0,1.7264097-.1652603,3.1585338-.495781,4.2963722-.3301934,1.1378384-.8842246,2.2627957-1.6617664,3.3742111-.6093362.8630397-1.6519489,1.8572033-3.1294746,2.9818303-.9846898.758669-2.2092526,1.3700301-3.6733611,1.8340832-1.4644357.4640531-3.0453718.6965751-4.7428082.6965751-1.7236163,0-3.2590649-.2027962-4.606673-.6080582s-2.4717057-.899041-3.3722927-1.4813368c-.9005871-.5816353-1.8270267-1.4417024-2.779319-2.5795408-.9526195-1.1378384-1.6748563-2.393259-2.1673649-3.766592s-.7385992-2.8705236-.7385992-4.4925626Zm13.4894982,12.2021198c1.0884275,0,2.2187428-.1535834,3.3916004-.4610805,1.1725303-.3068365,2.2125251-.8171298,3.1196571-1.529889.9068048-.7127592,1.6162789-1.5236135,2.1284223-2.4325631.5118162-.9089496.9231672-2.0761835,1.2343802-3.5020322.3108858-1.425188.4663287-2.8507064.4663287-4.276555,0-1.7782647-.2595078-3.5373729-.7775417-5.276994-.4018608-1.3208174-1.0563572-2.5012628-1.963162-3.541006-.907132-1.0397432-2.0017773-1.8439918-3.2849175-2.4130762-1.282813-.5687541-2.650056-.8531311-4.1010745-.8531311-1.1794025,0-2.3322979.1961904-3.459668.5885713-1.1273701.3920506-2.054137.8924352-2.7796462,1.5004935-.7258365.6083885-1.3993133,1.4714282-2.0214122,2.5894494-.6220988,1.1183515-1.0952997,2.3513125-1.4189482,3.6982226-.3239757,1.34691-.4859636,2.5372641-.4859636,3.5704015,0,1.0856531.1619879,2.3146507.4859636,3.6879837.3236485,1.373333.7677243,2.5633567,1.3315729,3.5704015.5635214,1.0070448,1.2566331,1.8998103,2.0796623,2.677636.822702.7784863,1.7458692,1.373333,2.7698288,1.7852008,1.0233051.4121981,2.1186049.6179668,3.2849175.6179668Z"/>
        <path class="cls-1" d="m130.4345848,83.1885353c.0127627-.1961904.0647951-.3725636.1557701-.5294499,1.0105425-.2747987,1.9952323-.458108,2.9543968-.5495974.6345343-.0525156,1.04294-.1965207,1.2245628-.4323456.129263-.1697675.2068209-.7983035.2330007-1.8846171l.1361353-5.1831926-.0193076-3.5145831.0193076-4.594291v-1.2171073c.0127627-2.7618592-.0003272-4.4829843-.0392698-5.1637056-.0130899-.1307936-.0647951-.3141029-.1560974-.5499277-.3383746-.1568863-.6217716-.2615872-.8495363-.3137726-.2277647-.0525156-1.2468157-.2421003-3.056171-.5697449-.0130899-.1436748-.0196349-.2480455-.0196349-.3137726,0-.078278.006545-.182979.0196349-.3137726.2464179,0,.6489332.0148629,1.2072186.0445887l2.9589783.1122976,1.7134716.0393041.5059257-.0198172c.0647951,0,.2529629.0132115.5645032.0393041.766088,0,1.2072186-.0062755,1.3240462-.0194869l1.5577014-.1179124c1.0511212,0,1.7907022.0198172,2.2190701.0591214-.0130899.2351643-.0582502.4901458-.1361353.7649445-.1426802.026423-.8164843.0620939-2.0214122.1080038-1.2052551.0459099-1.8983668.120885-2.0796623.225586-.2984504.1700978-.447021.6932722-.447021,1.5691931,0,.2094019-.0130899.6344812-.0389425,1.2752378v1.1771426l.0193076,3.6291926v1.2359336l.0389425,6.4934407-.0582502,5.5319755.0193076,1.2164467c0,.3923809.0647951.6344812.1943854.7256404.3236485.0132115,1.276268.026423,2.8572041.0393041h1.3217555l3.3628025-.1175821c.8809522-.0260927,1.5092687-.1142793,1.8852769-.2648901.3756809-.1502805,1.0039975-.5915439,1.8852769-1.3241202.5311238-.4709891.9457473-.9545292,1.2441977-1.451611.0644679-.104701.1747505-.2615872.3301934-.4709891.2460906-.3398652.5766113-1.0202563.9912348-2.0401823h.6414065c-.0775578.4706589-.1619879.9155553-.2526356,1.3340288-.3760082,1.8439918-.6348615,3.3808169-.7772145,4.6101448-.0261799.2615872-.0520325.5036875-.0778851.7256404l-7.2694916-.2156774c-6.2458592,0-9.9516179.0587911-11.1179305.1767035-.3629183.0257624-.7454714.0389739-1.147005.0389739h-2.0214122Z"/>
        <path class="cls-1" d="m164.7491769,82.4430777c.1816228-.1043707.3429561-.1568863.4856363-.1568863h.447021c.0903205,0,.2457634-.0062755.4660014-.0194869.9974525-.0914895,1.5864993-.182979,1.768122-.2747987.4532388-.2480455.8420096-.6797305,1.1656581-1.2947247.6741313-1.3340288,1.4323654-3.2236003,2.2747023-5.6693749.4018608-1.1639311.6544964-1.8700845.7585613-2.1187906.3236485-.7847617.6348615-1.6084973.9333119-2.4718673l1.827354-5.1594119c.2850332-.8105241.9719272-2.6677274,2.0610092-5.5712797.2719433-.7322461.6024639-1.7131982.9915621-2.9425261l.5720299-.0393041.6796945.0194869c.5563219,1.1117458,1.0485032,2.3083752,1.4755622,3.5902188.2326735.6800608.6145721,1.6937113,1.1453687,3.0406213l2.9507971,8.0626339,1.5727549,4.3749805c.8289197,2.4847485,1.3731335,4.0116649,1.6326413,4.5807492.2588533.5687541.4987263.9449509.7189643,1.1279298.0647951.0521853.3079406.1307936.729109.2354946.4208412.104701.7156918.182979.8842246.2351643.595919.1700978,1.0108697.3141029,1.2441977.431685.051378.1440051.0775578.2549815.0775578.3335898,0,.0653968-.0193076.163492-.0582502.2942856-.4149507.0132115-.7065289.0194869-.8747344.0194869-.6607141,0-1.8270267-.0194869-3.4986105-.0587911l-1.9438543-.0442584-2.3516056.0293955c-.1557701,0-.3144855-.0072663-.4764734-.0221292-.1619879-.0145326-.3010683-.0217989-.417896-.0217989h-.4273862c-.1426802-.0128812-.2722705-.0521853-.3887709-.1179124,0-.182979.0320703-.3593522.0971927-.5294499.1554429-.0786083.2977959-.1241879.4277134-.1373994l2.0400653-.1377296c.5307966-.0260927.9326574-.0980952,1.2049279-.2160076.0775578-.2358249.1165004-.4125284.1165004-.5307711,0-.2358249-.1685328-.8452042-.5052712-1.8281381-.2330007-.654959-.4368764-1.2772195-.6112996-1.8667816-.1750778-.5895621-.8642625-2.5286766-2.0675542-5.8176737-.5314511-.0914895-.9977798-.1377296-1.3993133-.1377296l-4.1596519.0393041-1.2245628-.0194869c-.4404761,0-.9264397.0326984-1.4575635.0980952-.1688601.3923809-.2791427.6737853-.3308479.8435528l-1.7128171,5.3949065c-.7258365,2.0533937-1.0884275,3.1846264-1.0884275,3.393698,0,.1175821.0582502.3137726.1747505.5885713.2722705.078278.6348615.1506108,1.0884275.2156774l2.643511.2354946c.142353.1175821.2140203.2226134.2140203.3137726,0,.0657271-.0196349.1638223-.0585774.2942856-.5828291.0132115-1.0301773.0198172-1.3410631.0198172-1.0367223,0-2.2419774-.0326984-3.6151109-.0980952-.6351888-.0260927-1.0887548-.0393041-1.360698-.0393041-.2722705,0-.7454714.0132115-1.4189482.0393041-.4408033.0260927-.7579068.0389739-.9522923.0389739-.311213,0-.7130738-.0194869-1.2052551-.0587911v-.1175821c0-.0914895.0261799-.2156774.0778851-.3728939Zm9.2748686-11.7704348c1.3862234.0786083,2.9671595.1175821,4.742481.1175821,1.0108697,0,1.8980396-.0323681,2.6628186-.0980952-.1295903-.5096327-.2784882-.9868973-.4466938-1.4314635-.8413551-2.274686-1.3067021-3.529446-1.3973498-3.7649405l-1.7664858-4.529885-.1940582-.3530767c-.0782123.1568863-.3635728.8303413-.8567358,2.0197045-.8305559,2.0395217-1.4271294,3.6282018-1.7903749,4.7653796-.1688601.509963-.3442651,1.0162928-.5258879,1.5196501s-.2951779.856434-.3403381,1.0588998c-.0454875.2031265-.1135551.4088952-.2045301.6176365l.1171549.0786083Z"/>
        <path class="cls-1" d="m204.9709264,82.4628949c1.8829862-.2219528,2.9468701-.3788391,3.191979-.4706589.1675511-.0650665.3220122-.2612569.4643652-.5879107v-.2156774c0-.3266538.051378-1.5090809.1547884-3.5476118.0255254-.5753598.0386153-1.1371778.0386153-1.6857844l-.0582502-2.3324862.0386153-2.6462588-.0193076-4.9199539.0193076-3.5281248c.0127627-1.4899243-.1004652-2.3982133-.3400109-2.724867-.2398729-.3266538-.8586993-.5585152-1.8561518-.6959145-.998107-.1370691-1.5485385-.2384672-1.6522762-.3035337-.1037377-.0653968-.1554429-.1697675-.1554429-.3141029,0-.0911592.0193076-.2087413.0582502-.3530767.1295903-.1175821.4277134-.182979.8940421-.1961904.0647951,0,.2431454-.0161841.5347236-.0488825.2915781-.0323681.5664666-.0492128.8259745-.0492128h1.5936988l5.1119442-.0587911c2.8896016,0,4.9142863.2160076,6.0743812.6473624,1.1594404.431685,2.0826076,1.1609585,2.7695015,2.1874902.686894,1.026862,1.0301773,2.1742788,1.0301773,3.4429108,0,2.4064705-1.2491064,4.2441869-3.7466647,5.5124886-.4270589.2226134-.7634701.4188038-1.0095607.5885713.4398216.9406571,1.0540665,2.070899,1.8433891,3.3900649l2.4645062,4.271931c.9846898,1.572496,1.6650389,2.5584024,2.041047,2.9577193.3760082.3996472.8328467.7305947,1.3705155.9925122.537996.2622478,1.4421828.5109539,2.7125604.7467787.0127627.1307936.0193076.2354946.0193076.3137726,0,.0786083-.006545.1767035-.0193076.2942856-1.7756488.0260927-3.8553111.0393041-6.2393143.0393041-.1685328,0-.4018608-.0132115-.6996567-.0393041-.9202219-1.7815676-2.0021045-3.7395084-3.2459749-5.8748134l-2.876839-5.3053987c-.3887709-.5499277-.7094741-.8934261-.9621097-1.0308255-.2526356-.1370691-.5864288-.206099-1.0010523-.206099l-1.6519489.0188264-.544541-.0188264c-.0386153.4184735-.0582502,1.2749075-.0582502,2.5699625v6.7084575c-.0130899.248706.0389425.595177.1554429,1.0397432.1037377.248706.282088.4481993.5347236.5981496.2526356.1506108.9814174.3761968,2.1866725.6770882l.7968494.1961904c.1037377.1307936.1554429.3071668.1554429.5294499-.3495011.0653968-.5955917.0980952-.7376175.0980952-1.1643491,0-1.9857421-.0132115-2.4638517-.0393041-.2460906-.0132115-.4466938-.0194869-.6018094-.0194869l-2.6389295.0393041-2.5803521-.0198172c-.1168276,0-.7048926.0198172-1.7655041.0591214l-.3881164-.0786083-.0389425-.1961904c0-.1175821.0903205-.2549815.2709615-.4118678Zm7.2122232-12.8299952c.3498283.0132115.6090089.0194869.7775417.0194869.9329846,0,2.0083222-.1106461,3.2266673-.3325989.8550996-.1697675,1.5482113-.4468782,2.0796623-.832323.5311238-.3851145.9748724-.9565109,1.3315729-1.7135285.356046-.7570176.5343963-1.5401279.5343963-2.3496611,0-.8878112-.2788155-1.8274775-.8357919-2.8199897-.4277134-.7570176-1.1502774-1.3898473-2.1673649-1.8991498-1.0174147-.5089721-2.2383777-.7636233-3.6638709-.7636233-.3498283,0-.8033943.0194869-1.3603708.0587911-.0520325.6787396-.0778851,1.2009232-.0778851,1.5662205l.0971927,3.661891-.0193076,1.5077598c0,1.0182746.0258526,2.317293.0775578,3.896725Z"/>
        <path class="cls-1" d="m240.4721205,82.4430777c.1816228-.1043707.3429561-.1568863.4856363-.1568863h.447021c.0903205,0,.2457634-.0062755.4660014-.0194869.9974525-.0914895,1.5864993-.182979,1.768122-.2747987.4532388-.2480455.8420096-.6797305,1.1656581-1.2947247.6741313-1.3340288,1.4323654-3.2236003,2.2747023-5.6693749.4018608-1.1639311.6544964-1.8700845.7585613-2.1187906.3236485-.7847617.6348615-1.6084973.9333119-2.4718673l1.827354-5.1594119c.2850332-.8105241.9719272-2.6677274,2.0610092-5.5712797.2719433-.7322461.6024639-1.7131982.9915621-2.9425261l.5720299-.0393041.6796945.0194869c.5563219,1.1117458,1.0485032,2.3083752,1.4755622,3.5902188.2326735.6800608.6145721,1.6937113,1.1453687,3.0406213l2.9507971,8.0626339,1.5727549,4.3749805c.8289197,2.4847485,1.3731335,4.0116649,1.6326413,4.5807492.2588533.5687541.4987263.9449509.7189643,1.1279298.0647951.0521853.3079406.1307936.729109.2354946.4208412.104701.7156918.182979.8842246.2351643.595919.1700978,1.0108697.3141029,1.2441977.431685.051378.1440051.0775578.2549815.0775578.3335898,0,.0653968-.0193076.163492-.0582502.2942856-.4149507.0132115-.7065289.0194869-.8747344.0194869-.6607141,0-1.8270267-.0194869-3.4986105-.0587911l-1.9438543-.0442584-2.3516056.0293955c-.1557701,0-.3144855-.0072663-.4764734-.0221292-.1619879-.0145326-.3010683-.0217989-.417896-.0217989h-.4273862c-.1426802-.0128812-.2722705-.0521853-.3887709-.1179124,0-.182979.0320703-.3593522.0971927-.5294499.1554429-.0786083.2977959-.1241879.4277134-.1373994l2.0400653-.1377296c.5307966-.0260927.9326574-.0980952,1.2049279-.2160076.0775578-.2358249.1165004-.4125284.1165004-.5307711,0-.2358249-.1685328-.8452042-.5052712-1.8281381-.2330007-.654959-.4368764-1.2772195-.6112996-1.8667816-.1750778-.5895621-.8642625-2.5286766-2.0675542-5.8176737-.5314511-.0914895-.9977798-.1377296-1.3993133-.1377296l-4.1596519.0393041-1.2245628-.0194869c-.4404761,0-.9264397.0326984-1.4575635.0980952-.1688601.3923809-.2791427.6737853-.3308479.8435528l-1.7128171,5.3949065c-.7258365,2.0533937-1.0884275,3.1846264-1.0884275,3.393698,0,.1175821.0582502.3137726.1747505.5885713.2722705.078278.6348615.1506108,1.0884275.2156774l2.643511.2354946c.142353.1175821.2140203.2226134.2140203.3137726,0,.0657271-.0196349.1638223-.0585774.2942856-.5828291.0132115-1.0301773.0198172-1.3410631.0198172-1.0367223,0-2.2419774-.0326984-3.6151109-.0980952-.6351888-.0260927-1.0887548-.0393041-1.360698-.0393041-.2722705,0-.7454714.0132115-1.4189482.0393041-.4408033.0260927-.7579068.0389739-.9522923.0389739-.311213,0-.7130738-.0194869-1.2052551-.0587911v-.1175821c0-.0914895.0261799-.2156774.0778851-.3728939Zm9.2748686-11.7704348c1.3862234.0786083,2.9671595.1175821,4.742481.1175821,1.0108697,0,1.8980396-.0323681,2.6628186-.0980952-.1295903-.5096327-.2784882-.9868973-.4466938-1.4314635-.8413551-2.274686-1.3067021-3.529446-1.3973498-3.7649405l-1.7664858-4.529885-.1940582-.3530767c-.0782123.1568863-.3635728.8303413-.8567358,2.0197045-.8305559,2.0395217-1.4271294,3.6282018-1.7903749,4.7653796-.1688601.509963-.3442651,1.0162928-.5258879,1.5196501s-.2951779.856434-.3403381,1.0588998c-.0454875.2031265-.1135551.4088952-.2045301.6176365l.1171549.0786083Z"/>
      </g>
      <g>
        <g>
          <path class="cls-1" d="m96.5987475,38.0628131h1.0616457c.3432563,0,.7834473.0579112.7834473.4722104v3.7264784s-1.1942246.4423978-3.3515662.4423978c-2.1561825,0-5.0387236-1.1982942-5.0387236-4.517221,0-3.3168794,3.0071508-4.6080363,5.2282463-4.6080363,1.0026734,0,2.2526826.0596661,2.2526826.6275177v1.1079176c-.8438685-.6949346-1.1864003-.8237931-2.4685761-.8237931-1.2873921,0-3.5897736.8502626-3.5897736,3.6212265,0,2.7566323,3.0871329,4.4027147,5.6574253,3.3608978v-2.1152423c0-.4436729-.0347748-1.2943536-.5348074-1.2943536Z"/>
          <path class="cls-1" d="m112.7213591,42.4781044h2.7204036c-.7493969-.2841452-1.0616457-1.1971242-1.3136181-1.862372-.2532765-.6605681-2.223124-5.4949845-2.4377135-6.1586237-.2237179-.6618842-.5314749-.6618842-.7880839-.6618842h-1.5576213c.747948.2540196.3358666.7907221.2112569,1.1688791-.1227261.3764436-2.7499622,6.9506826-2.7499622,6.9506826-.9095059-.2525572-3.1994265-3.6337825-3.1994265-3.6337825,3.0359849-.8816836,2.5727556-4.4857793-.402953-4.4857793h-3.4119875c.6902798.1570622.6279749.8865095.6279749,1.4543612v5.9685111c0,.8192389-.2513928,1.043405-.6575335,1.2600076h2.5013224c-.6870921-.3139782-.5039448-1.0418169-.5039448-1.3884067v-6.4394053h1.3496969c.7231709,0,1.2513132.8850471,1.2513132,1.4856566,0,.9729376-.7538887,1.3543327-1.499953,1.6368692-.7540336.2837065-.3451399.9161964,0,1.4198484.3431114.5068694,1.3431767,1.9310845,1.9428971,2.6264783.5924757.6950808,1.1252546.6589594,1.4054815.6589594h2.2525377c-.8719781-.2807816-.4042571-.9724989-.2813861-1.3208437.1279423-.3500996.6889757-1.8344401.6889757-1.8344401h3.3798208s.4087488,1.0715037.7834473,2.0238215c.3793351.9429584.0898349,1.0701875-.3109447,1.1314623Zm-3.5073284-4.1659514l1.2821759-3.3794703,1.3792555,3.3794703h-2.6614314Z"/>
          <path class="cls-1" d="m140.1330299,42.4781044h2.7283729c-.7559172-.2841452-1.0662823-1.1971242-1.3149221-1.862372-.2487847-.6605681-2.2237036-5.4949845-2.4409012-6.1586237-.2212547-.6618842-.5288668-.6618842-.7854758-.6618842h-1.5616783c.7553376.2540196.3432563.7907221.2158936,1.1688791-.1246097.3764436-2.7545988,6.9506826-2.7545988,6.9506826-.1744536.4126905-.4310626.4188326-.5924757.5633182h2.2539866c-.8767596-.2807816-.4075896-.9724989-.282835-1.3208437.1240301-.3500996.6915838-1.8344401.6915838-1.8344401h3.3785167s.4120814,1.0715037.7860554,2.0238215c.3733944.9429584.0905594,1.0701875-.321522,1.1314623Zm-3.5005183-4.1659514l1.2821759-3.3794703,1.3759229,3.3794703h-2.6580988Z"/>
          <path class="cls-1" d="m130.5059163,42.6397001c.3122487-.2854613.5950838-.5083523.5950838-1.5159489v-5.969953c0-.4720641-.0360789-1.0135925-.5950838-1.2015115h2.4048223c-.2486398.2240404-.5459644.504822-.5459644,1.140383v6.0310815c0,.5384778-.108961,1.3294924.5813187,1.5159489h-2.4401767Z"/>
          <path class="cls-1" d="m117.5388281,35.8145125s-.0308626,4.768149-.0308626,5.3092386c0,.5384778.0636089,1.3294924.7520051,1.5159489h-2.2867329c.3189139-.2854613.5629171-.5083523.5629171-1.5159489,0-1.0085998.0669415-5.5006674.0669415-5.969953,0-.4720641-.0669415-1.0135925-.6298586-1.2015115h1.7584457l5.2546172,6.6634457v-5.4287376c0-.3499534.0636089-1.0106677-.6562295-1.2632249h2.3458501c-.2781984.2164359-.6923083.313832-.6923083,1.2300283v7.8371714s-.6528969.1209408-1.7145425-1.1718246c-1.0675864-1.2927655-4.7302422-6.0046325-4.7302422-6.0046325Z"/>
          <path class="cls-1" d="m132.4953247,49.3645668c-6.8823676-5.8556339-9.5168485-12.7467555-.1022959-22.1498695.295296-.2978918.5747985-.1207946.3431114.1458017-4.1258851,4.7621529-8.7289095,12.3777909-.0944715,21.7139268.133883.141122.0840391.4517367-.146344.290141Z"/>
        </g>
        <g>
          <path class="cls-1" d="m153.7956564,35.7344696c.1724735-.0216861.3373976-.0902611.4959338-.2063111.1219509-.0802972.2224153-.1201528.301393-.1201528.0934957,0,.2392561.0779528.4367005.2338583.1980251.1564917.2891979.3358416.2752607.5386361,0,.1019833-.0580719.1928305-.1724735.2725416-.1010451.058025-.2340296.2649222-.3989537.6201055-.7909389,1.6030137-1.7682885,2.8326747-2.9326294,3.688983-.7549343.5368777-1.6747927.9717721-2.760156,1.3052693-.2729378.0797111-.4471534.05275-.5226468-.0814694s-.0127758-.2408916.1887336-.3211889c2.7166021-1.0297971,4.5208951-2.8180219,5.4117176-5.3640883l-.7973268.0545083c-.3164917.0070333-.5174204,0-.6039475-.0222722-.7189298,1.0884082-1.7177659,1.9804692-2.9970892,2.6767692-.2375139.1090167-.4099874.1142917-.5174204.0164111-.1080137-.0978805-.0580719-.2156889.1509869-.353425.9773496-.6095555,1.7677077-1.3603637,2.3716552-2.2524248.3664335-.5151916.5603935-.8738916.5818801-1.0772721.0075493-.11605-.0859464-.2068972-.2799064-.2719555-.1295003-.058025-.1922179-.1394944-.1887336-.2449944.0034843-.1049139.1091751-.1723166.3182338-.2010361.8118447-.0076194,1.2107985.1811083,1.1962805.5655972-.0069686.1377361-.1039486.3516666-.2909401.6417916.0574912-.0070333.3019737-.0398556.7334477-.0978805Zm1.3368145-1.1206443c.8048761.1523889,1.3472674.4501333,1.6277545.892061.1080137.2467528.0360046.3991416-.2154466.4571666-.1724735.0293056-.3414626-.0615417-.5069674-.2719555-.2154466-.2971583-.5569092-.5439111-1.0243878-.7396721-.1434375-.058025-.204413-.1359778-.1829264-.2344444.0214866-.0978805.1219509-.131875.3019737-.1031555Zm.7003468-.717986c.8193941,0,1.4053393.1957611,1.7578355.5872833.1434375.2326861.09698.395625-.1405339.4899888-.1579555.0650583-.3339133.0035167-.5278733-.1852111-.2804871-.2537861-.6649229-.4354805-1.1538881-.5439111-.1509869-.0363389-.222996-.1037417-.2154466-.2016222.0069686-.0978805.1004643-.1465278.2799064-.1465278Z"/>
          <path class="cls-1" d="m160.0163152,36.5942945c.2444826.2250666.6178847.3370139,1.1213678.3370139,1.3943056,0,2.5261264-.0720917,3.396043-.2174472.19396-.0287194.3559806-.0832278.4849001-.1629389.0934957-.058025.1724735-.0873305.2375139-.0873305.1364689,0,.2746799.0961222.4152139.2883666.1399532.1922444.2102202.3645611.2102202.5169499,0,.1307028-.0685248.2250666-.2049937.2830916-.0934957.058025-.2119623.2537861-.3559806.5872833-.524389,1.1681193-1.2148635,2.0642831-2.0696815,2.6879053-.8559794.6242083-1.9123067,1.0989582-3.1701434,1.4254221-.1364689.0287194-.2282225-.0234444-.2746799-.1576639-.0470382-.1342194-.0017422-.2449944.1347267-.3317389,1.3437831-.4284472,2.4076597-1.0233499,3.1910493-1.7847082.7833895-.7619444,1.3188122-1.6610387,1.6068487-2.6984553-2.0992981.2244805-3.303128.3698361-3.6120703.4348944-.1295003.0216861-.2479669.0328222-.3559806.0328222-.4454112,0-.7868738-.2104139-1.0238071-.6312416-.0720091-.174075-.0737513-.3211889-.0058072-.4407555.0685248-.1195667.1602784-.1465278.2752607-.0814694Zm.9274078-1.7952581c.2799064.2027944.6144004.3041916,1.0023205.3041916.9128898,0,1.5847813-.1013972,2.0162553-.3041916.0934957-.0439583.1904757-.0656444.2909401-.0656444.1579555,0,.3304289.0726778.5174204.2180333.1724735.1301167.2590005.2573028.2590005.3803861,0,.1963472-.1364689.2942277-.4099874.2942277h-.0859464c-.0789777-.0076194-.2555162-.0111361-.528454-.0111361-.7909389,0-1.4552811.0650583-1.994188.1957611-.115563.0216861-.2264803.0328222-.334494.0328222-.4024381,0-.7258984-.2209639-.970381-.6640638-.0644598-.1447694-.0662019-.2590611-.0052265-.3422889.0609755-.0838139.1416954-.0961222.2427404-.0380972Z"/>
          <path class="cls-1" d="m168.9756433,35.4842002c.7113804.1523889,1.2723547.3774555,1.6817614.6746138.3089423.2250666.4634135.4829555.4634135.7724944,0,.3487361-.1579555.5228111-.4744472.5228111-.1579555,0-.2729378-.0691611-.3449469-.2068972-.3234603-.5732166-.8623673-1.0122138-1.6167209-1.3169915-.1370496-.0797111-.171312-.1775916-.1027872-.2936416s.1997672-.1664555.3937273-.1523889Zm.1724735,4.3635968c.1649241.2250666.3089423.3411166.4308933.34815.3809515.0146528,1.0603924-.2866083,2.0377419-.9031971,1.3298458-.8990944,2.6666603-2.2670775,4.0110241-4.1021912.19396-.2391333.3356554-.290125.4256668-.1523889s.0842042.3153277-.0162601.5333611c-1.2433187,2.285247-3.1625941,4.0986746-5.7572452,5.4408689-.0859464.0363389-.218931.0902611-.3989537.1629389-.107433.0216861-.1904757.0328222-.2479669.0328222-.315911-.0146528-.6144004-.3739389-.8948875-1.0772721-.0644598-.2754722-.0301974-.4243444.1027872-.4460305.1329846-.0222722.2351911.0322361.3072002.1629389Z"/>
          <path class="cls-1" d="m178.1719047,36.5509223c1.5667791.2684389,2.3501686.7578416,2.3501686,1.4687943,0,.3118111-.1579555.4677166-.4744472.4677166-.1364689,0-.2799064-.0978805-.4308933-.2936416-.3449469-.5005388-.8844346-.9178499-1.6173016-1.2513471-.1010451-.0504056-.1312424-.1324611-.0917536-.2449944.0394889-.1119472.1277581-.1611805.264227-.1465278Zm.9163741,3.3842052c.1509869.2391333.2909401.3628027.4204403.3698361.3809515.0216861,1.0603924-.2754722,2.0377419-.8926471,1.5598104-1.0591027,2.8391337-2.5495831,3.8379699-4.4720273.0574912-.1013972.1422761-.1342194.2537741-.0978805.1109173.0363389.1521483.1412528.1236931.3153277-.8553986,2.4810081-2.7061492,4.4690968-5.5522515,5.9630938-.0865271.0433722-.222996.1019833-.4099874.174075-.1004643.0216861-.1829264.0328222-.2479669.0328222-.315911-.0146528-.6178847-.3663194-.9053405-1.055586-.0934957-.2391333-.0720091-.4009.0644598-.4841277s.2624849-.0345806.3774672.1471139Zm.334494-5.1255411c.8048761.1377361,1.4157922.3557694,1.8327482.6529277.3019737.2174472.4523799.4753361.4523799.7724944,0,.3411166-.1579555.5116749-.4738665.5116749-.1585362,0-.2700342-.0656444-.334494-.1957611-.3304289-.5732166-.8734009-1.0122138-1.6277545-1.3169915-.1509869-.0504056-.212543-.1377361-.1835071-.2608194.0284552-.1236694.1399532-.1775916.334494-.163525Z"/>
          <path class="cls-1" d="m192.5220446,37.3122806c-.014518.0802972-.0435539.2397194-.0865271.4788527-.2369332,1.5449887-.639952,2.6591858-1.2073142,3.340833-.416956.4788527-.9634123.9319166-1.6387882,1.3597776-.1869914.11605-.3524963.1090167-.4959338-.0216861-.1440182-.1301167-.126016-.2608194.0540068-.3915222,1.480252-.8774082,2.2996461-2.3573386,2.4581823-4.4397912.0139372-.3698361-.1509869-.6669944-.4959338-.892061-.1010451-.1307028-.0325202-.2068972.204413-.2285833.6039475.0509917.9773496.1594222,1.1213678.3264639.625434-.174075,1.1463387-.5368777,1.5632947-1.0884082-2.1707265.211-3.5110253.3704222-4.021477.4788527-.1794421.0363389-.3234603.0545083-.4308933.0545083-.5180011,0-.8879189-.3082944-1.1109149-.9248832-.0429732-.1447694-.0342624-.2684389.0272938-.3698361.0609755-.1013972.1596976-.0832278.2961665.0545083.2444826.2684389.625434.4026583,1.1428544.4026583,1.1143992,0,2.454698-.0838139,4.021477-.2502694.1440182-.0222722.2984894-.0797111.4634135-.174075.0934957-.0509917.1689891-.0761944.2264803-.0761944.1295003,0,.3164917.1195667.5609743.3587.1509869.1453555.2264803.2649222.2264803.3592861,0,.1453555-.0830428.2356166-.2479669.2719555-.0795585.0216861-.2264803.1236694-.4425077.3047777-.6608579.5439111-1.3908213.8996805-2.1881481,1.066136Z"/>
          <path class="cls-1" d="m200.2519912,41.6430551c2.1846638-.8774082,3.7049853-2.0566637,4.560384-3.536008.3594649-.6242083.621369-1.2114915.7868738-1.763022.0574912-.2104139.0865271-.3592861.0865271-.4460305.0069686-.1811083-.1080137-.3698361-.3449469-.5661833-.1585362-.1154639-.2049937-.2356166-.1405339-.3587.0650405-.1236694.2119623-.1670416.4425077-.1307028.732867.1453555,1.0923319.4243444,1.0778139.8375527,0,.0509917-.0180023.1418389-.0540068.2725416-.3594649,1.1751527-.8513336,2.1943998-1.4767677,3.0571552-1.0133541,1.3785332-2.6056848,2.401297-4.7764113,3.0688775-.1364689.0433722-.2351911.005275-.2961665-.1142917-.0615562-.1195667-.0162601-.226825.1347267-.3211889Zm.3774672-6.2455994c1.4157922.4788527,2.1956974,1.0409332,2.3391349,1.6862415.0789777.4067611-.0499418.6529277-.3879201.7402583-.1295003.0146528-.2369332-.0035167-.3234603-.0545083-.0720091-.0504056-.1364689-.1307028-.19396-.2391333-.4024381-.7619444-.9419257-1.335161-1.6173016-1.7196498-.1440182-.1013972-.1904757-.2045528-.1399532-.3100527.0499418-.1049139.1579555-.1394944.3234603-.1031555Z"/>
          <path class="cls-1" d="m209.7502263,36.5942945c.2444826.2250666.6178847.3370139,1.1213678.3370139,1.3943056,0,2.5261264-.0720917,3.396043-.2174472.19396-.0287194.3559806-.0832278.4849001-.1629389.0934957-.058025.1724735-.0873305.2375139-.0873305.1364689,0,.2746799.0961222.4152139.2883666.1399532.1922444.2102202.3645611.2102202.5169499,0,.1307028-.0685248.2250666-.2049937.2830916-.0934957.058025-.2119623.2537861-.3559806.5872833-.524389,1.1681193-1.2148635,2.0642831-2.0696815,2.6879053-.8559794.6242083-1.9123067,1.0989582-3.1701434,1.4254221-.1364689.0287194-.2282225-.0234444-.2746799-.1576639-.0470382-.1342194-.0017422-.2449944.1347267-.3317389,1.3437831-.4284472,2.4076597-1.0233499,3.1910493-1.7847082.7833895-.7619444,1.3188122-1.6610387,1.6068487-2.6984553-2.0992981.2244805-3.303128.3698361-3.6120703.4348944-.1295003.0216861-.2479669.0328222-.3559806.0328222-.4454112,0-.7868738-.2104139-1.0238071-.6312416-.0720091-.174075-.0737513-.3211889-.0058072-.4407555.0685248-.1195667.1602784-.1465278.2752607-.0814694Zm.9274078-1.7952581c.2799064.2027944.6144004.3041916,1.0023205.3041916.9128898,0,1.5847813-.1013972,2.0162553-.3041916.0934957-.0439583.1904757-.0656444.2909401-.0656444.1579555,0,.3304289.0726778.5174204.2180333.1724735.1301167.2590005.2573028.2590005.3803861,0,.1963472-.1364689.2942277-.4099874.2942277h-.0859464c-.0789777-.0076194-.2555162-.0111361-.528454-.0111361-.7909389,0-1.4552811.0650583-1.994188.1957611-.115563.0216861-.2264803.0328222-.334494.0328222-.4024381,0-.7258984-.2209639-.970381-.6640638-.0644598-.1447694-.0662019-.2590611-.0052265-.3422889.0609755-.0838139.1416954-.0961222.2427404-.0380972Z"/>
          <path class="cls-1" d="m222.8924713,37.6715667c1.164341-.058025,1.8652685-.1377361,2.1022017-.2391333.0934957-.0439583.1835071-.0656444.2700342-.0656444.2154466,0,.4343776.0943639.6573736.2830916.1509869.1307028.2264803.2573028.2264803.3809722,0,.1957611-.1225316.2936416-.3664335.2936416-.0650405,0-.1184666-.0070333-.1620205-.0216861-.4024381-.0293056-.9483136-.0439583-1.6387882-.0439583-1.7247345,0-3.1910493.0838139-4.3983635.2502694-.1585362.0146528-.2555162.0222722-.2915208.0222722-.4454112,0-.8013918-.2397194-1.067361-.7185721-.107433-.1811083-.1312424-.3405305-.0696862-.4788527.0609755-.1377361.1707313-.1412528.3286868-.01055.3089423.2977444.8118447.4460305,1.5092879.4460305.3594649,0,1.3263615-.0328222,2.9001092-.0978805Z"/>
          <path class="cls-1" d="m229.0811905,36.5942945c.2444826.2250666.6178847.3370139,1.1213678.3370139,1.3943056,0,2.52612-.0720917,3.396043-.2174472.19396-.0287194.3559806-.0832278.4849001-.1629389.0934957-.058025.1724735-.0873305.2375139-.0873305.1364689,0,.2746799.0961222.4152139.2883666.1399532.1922444.2102202.3645611.2102202.5169499,0,.1307028-.0685248.2250666-.2049937.2830916-.0934957.058025-.2119623.2537861-.3559806.5872833-.524389,1.1681193-1.2148635,2.0642831-2.0696815,2.6879053-.8559794.6242083-1.9123067,1.0989582-3.1701434,1.4254221-.1364689.0287194-.2282225-.0234444-.2746799-.1576639-.0470382-.1342194-.0017422-.2449944.1347267-.3317389,1.3437831-.4284472,2.4076597-1.0233499,3.1910493-1.7847082.7833895-.7619444,1.3188122-1.6610387,1.6068487-2.6984553-2.0992981.2244805-3.303128.3698361-3.6120703.4348944-.1295003.0216861-.2479669.0328222-.3559806.0328222-.4454112,0-.7868738-.2104139-1.0238071-.6312416-.0720091-.174075-.0737513-.3211889-.0058072-.4407555.0685248-.1195667.1602784-.1465278.2752607-.0814694Zm.9274078-1.7952581c.2799064.2027944.6144004.3041916,1.0023205.3041916.9128898,0,1.5847813-.1013972,2.0162553-.3041916.0934957-.0439583.1904757-.0656444.2909401-.0656444.1579555,0,.3304289.0726778.5174204.2180333.1724735.1301167.2590005.2573028.2590005.3803861,0,.1963472-.1364689.2942277-.4099874.2942277h-.0859464c-.0789777-.0076194-.2555162-.0111361-.528454-.0111361-.7909389,0-1.4552811.0650583-1.994188.1957611-.115563.0216861-.2264803.0328222-.334494.0328222-.4024381,0-.7258984-.2209639-.970381-.6640638-.0644598-.1447694-.0662019-.2590611-.0052265-.3422889.0609755-.0838139.1416954-.0961222.2427404-.0380972Z"/>
        </g>
      </g>
      <g>
        <rect class="cls-1" x="226.771" y="106.1488067" width="20.2279187" height=".5823653"/>
        <rect class="cls-1" x="226.771" y="101.3154498" width="20.2279187" height="2.326714"/>
        <rect class="cls-1" x="78.0010813" y="106.1488067" width="20.2292796" height=".5823653"/>
        <rect class="cls-1" x="78.0010813" y="101.3154498" width="20.2292796" height="2.326714"/>
        <g>
          <path class="cls-1" d="m121.7477047,96.3143488c.0557861.3406398-.0734517.4935993-.3877134.4598169l-.1692178-.0675649c-.2473184-.0572425-.5792456.0619345-.994852.3575311-.5169511.3744223-1.0627251.9815682-1.6354624,1.8204994l-.3877134.5452114-.3375059.5273818-.4221148.6465588-.3877134.6127763-.7419551,1.294056-.3031045.4935993-.4388506.8173479-.5057939.8333008-.3542417.5789939-.0678731.119177-.4044492.5621026-.1180806.1529595-.2361611.2890277-.0846089.0853946-.1682881.1022858-.0678731-.0853946.1180806-.238354c.1692178-.238354.2956663-.516121.3802752-.8342392.0836791-.3171798.1264485-.7422758.1264485-1.2762264v-2.7401331c0-.9871986.0929768-1.7932857.2789305-2.4173229l.0492777-.1022858.2138467-.6465588.0492777-.0853946.0660135-.2890277c-.2584756.3171798-.4751116.5930699-.6489782.8257935-.1747964.2327236-.4025897.5808707-.6833797,1.046318l-.7252192,1.2424439-.4388506.6981709-.3031045.5273818-.4221148.6296676c-.8321426,1.2142919-1.5713083,2.1198496-2.2174973,2.7147963-.6461889.5958851-1.3128328,1.0069051-1.998072,1.2339983-.405379.1370067-.7930923.2045716-1.1640699.2045716-.674082,0-1.2198559-.2045716-1.6354624-.6127763s-.6238745-.941217-.6238745-1.599975c0-.5893163.1180806-1.1683102.3542417-1.7360432.2352314-.5677331.6071387-1.1176365,1.1129326-1.6506487,1.0227451-1.1120061,2.0175971-1.6684783,2.9845561-1.6684783.4834795,0,.8767715.1304378,1.1808057.3913135.3031045.2608757.4555864.6071459.4555864,1.0388107,0,.1135466-.0111572.22897-.0344014.3481471-.0223144.119177-.0446289.2130172-.0669433.2815205-.0111572.0225216-.0455586.1022858-.1013447.238354-.180375.3744223-.4044492.6803413-.6750118.9186953-.1571308.1248074-.2752114.2073868-.3533119.2467997-.0790303.0403513-.1413248.0544273-.1859537.0431665-.0334717-.0347209-.0446289-.0741337-.0334717-.119177l.1850239-.1022858c.180375-.1135466.3542417-.3462702.5234595-.6981709.0334717-.091025.0613647-.196126.0836791-.315303s.03998-.2064484.0511373-.2636909c0-.4419872-.1357462-.8051487-.4063087-1.0894844-.2714923-.2833973-.6266638-.425096-1.0664442-.425096-.2370909,0-.4992856.0450433-.7875137.1360683-.2872984.091025-.5690182.2327236-.8460891.4260344-.2761412.1923724-.5327572.4476176-.7698481.7657358-.1348164.1585899-.2621946.3462702-.381205.5611642-.1180806.2158324-.2110574.420404-.2789305.6127763-.1348164.4429256-.2026895.8455-.2026895,1.2086615,0,.6465588.180375,1.1636182.5401954,1.5493013s.8330724.5789939,1.4188264.5789939c.2696328,0,.5569312-.0431665.8609654-.128561.3040342-.0844562.6248043-.2233396.9632399-.4166504.393292-.238354.7484634-.4992297,1.0636549-.7826271.2361611-.2158324.5178809-.5076753.8442296-.8764672s.6424699-.763859.9465041-1.1833246l.4388506-.6127763.32077-.4935993.473252-.6981709c.7094132-1.1232669,1.271923-1.9743973,1.6884591-2.5533912.3719073-.5104906.7094132-.9074345,1.0134474-1.1908318l.0678731-.0685033.3040342-.2552453.0502075-.0506737.2370909-.1707891c.112502-.0788257.1915323-.1022858.2361611-.0675649l.0167358.0788257-.1850239.1595283c-.0790303.0675649-.1469034.1407603-.2026895.219586-.1236592.1585899-.2417397.3847447-.3542417.6784645-.0567159.1698507-.0957661.3612847-.1180806.5761787s-.0334717.525505-.0334717.9318329l.0204549.6953557.0195251.3894367.0613647.7798119v1.0341187c0,.338763-.0492777.6859717-.1478332,1.0416259-.0985554.3565927-.1859537.6700189-.2621946.941217l-.180375.5761787.5392656-.7835655.0344014-.0675649.7075536-1.2771648.2026895-.3228102.573667-.9871986.3877134-.6643884.4044492-.6465588c.4165362-.6812797.7596207-1.2086615,1.0292535-1.5830838.4490781-.6127763.8088984-1.0641476,1.0794609-1.3531753.2696328-.2890277.5364763-.5104906.8005305-.66345.2640483-.1538979.5030046-.2299084.7168513-.2299084.2584756,0,.4156064.1079162.4723223.3228102Z"/>
          <path class="cls-1" d="m121.3599914,103.6854946v.1360683l-1.2905183,1.480798-.2882282.2721365c-.3737668.3181182-.6908178.544273-.9511529.6803413-.2603351.1370067-.5662289.238354-.9167515.3068574-.1357462.0225216-.2491779.0337825-.3393654.0337825-.0678731,0-.2147765-.014076-.4416399-.0422281-.2259337-.0281521-.4267636-.1520211-.6024898-.3734839-.1757262-.2205244-.2631244-.4945377-.2631244-.8229783,0-.1463907.0055786-.2599373.0167358-.338763s.0502075-.1980028.1180806-.3565927c.1571308-.3847447.3960813-.7769967.7168513-1.1786326.3198403-.401636.7084834-.7694894,1.1631401-1.1026221.4555864-.334071.8693333-.5686715,1.2403108-.7047397.4602353-.1698507.8256342-.2543069,1.0961968-.2543069.0669433,0,.2073383.0197064.421185.0591193.2138467.0403513.32077.1895572.32077.4494944,0,.1585899-.0567159.3284406-.1692178.5086137-.1236592.1585899-.2919472.3228102-.5057939.4926609-.28079.214894-.6350317.4288496-1.0627251.6437436-.1906025.091025-.3905027.1754811-.597841.2552453-.2082681.0788257-.397011.1407603-.5652991.1858035l-.6406103.1867419c-.0223144.0112608-.0901934.1473291-.2026895.4072664-.1459736.3162414-.2305825.525505-.252897.6277908-.0223144.1013474-.0334717.1811115-.0334717.2374156,0,.4410488.2975258.6615732.8935073.6615732.1906025,0,.4072385-.0572425.6489782-.1707891s.4806902-.2665061.7168513-.4598169l.3375059-.2890277.1515522-.1698507.7419551-.8342392.3542417-.4260344.1348164-.2036332.0511373.0337825v.0685033Zm-.6917476-1.4517075c.0223144-.0450433.0390503-.1013474.0502075-.1689123.0111572-.0563041.0176656-.1069778.0176656-.1520211,0-.1576515-.0483479-.2505533-.1441141-.2787053-.0948364-.0290905-.1543415-.0431665-.176656-.0431665-.112502,0-.2110574.02346-.2947365.0675649-.0846089.0459817-.1943216.1248074-.329138.2374156-.2138467.1801731-.3877134.3321942-.5225298.4560633-.1357462.123869-.2872984.2702597-.4555864.439172-.2361611.2364772-.4723223.530197-.7084834.8792824l-.2194253.3040422.2361611-.0337825c.0901875-.0112608.1515522-.0225216.1859537-.0337825.0557861-.0225216.1115722-.0450433.1682881-.0675649.2919472-.1013474.5420549-.2026948.750323-.3040422s.4156064-.2364772.6238745-.406328c.2082681-.1689123.3765561-.3209334.5057939-.4560633s.2333718-.2815205.3124021-.439172Z"/>
          <path class="cls-1" d="m127.5996661,103.6001v.0844562l-.0511373.1013474-.0678731.0675649-.2872984.3556543-.0511373.0844562-.2026895.2036332-.2547565.2702597-.2538267.2711981-.152482.1858035-.3384356.3218718c-.1692178.1576515-.3133319.2880893-.4323422.3894367-.1180806.1013474-.2054788.1745427-.2621946.219586-.3728371.2711981-.6657141.406328-.8804905.406328-.2482481.0225216-.4462888-.0394129-.5931921-.1848651-.1469034-.1463907-.2194253-.3537775-.2194253-.6230988v-.3368862l.1180806-.4044512-.2510374.2533685-.317051.3021654-.2501077.2533685c-.4118873.3584695-.7670588.5883779-1.0683037.6897253-.1217996.0337825-.2389504.0506737-.3495929.0506737-.2780007,0-.5039344-.0882098-.6759415-.2627525-.1720071-.1754811-.2584756-.4213424-.2584756-.7385222,0-.5649179.1738667-1.1138829.5225298-1.6450183.4044492-.6221604,1.0348321-1.2161687,1.8883593-1.7820249.2705626-.1689123.5401954-.3162414.8098281-.4410488.2696328-.123869.4890581-.200818.6573462-.22897.1692178-.0281521.2872984-.0422281.3542417-.0422281.292877,0,.5150916.0666265.6666438.200818.1515522.133253.216636.296535.1933918.4898457l.405379-.6127763h1.1296684l-2.2937383,3.4092136-.1348164.2392924c-.0567159.1135466-.104134.2186476-.1431843.315303-.03998.0966554-.0595052.2017564-.0595052.315303,0,.2270932.1013447.3528391.3040342.3753607.0669433,0,.2194253-.0628729.4555864-.1876804.0781005-.0450433.1627094-.1079162.252897-.1867419.0223144-.0112608.1180806-.1022858.2863686-.2730749l.3375059-.3397014.3709775-.3922519.0669433-.0675649.1692178-.1876804.2696328-.305919.3542417-.4767081.1013447-.1360683.0846089-.0337825.0502075.0337825Zm-2.3439458-1.3250233c.0111572-.0459817.0167358-.1135466.0167358-.20551,0-.3181182-.1673583-.4785849-.5020749-.4785849-.2110574,0-.4425697.0947786-.6936071.2824589s-.6322424.5611642-1.1445447,1.1195133l-.2677733.3068574-.1338866.1538979-.3003151.4448024c-.1115722.1482675-.2259337.3162414-.3430845.5039217s-.1813048.2984118-.192462.3331326c-.088328.1820499-.1496927.338763-.1840941.4701393-.0325419.1304378-.0436991.2355388-.0325419.3162414.0325419.3303174.2101276.4954761.5308977.4954761.1217996,0,.2398802-.02346.3561012-.0685033.116221-.0459817.2659137-.1454523.4481483-.2993502.1831643-.1538979.4286232-.4072664.7391658-.7601054l.2361611-.2740133c.1236592-.1595283.2017597-.2618141.2361611-.3068574.1115722-.1482675.1794453-.2505533.2017597-.3077958l.3040342-.4616937.1850239-.2730749c.2473184-.3762991.3988706-.6127763.4555864-.7094317.0557861-.0966554.0846089-.1904956.0846089-.2815205Z"/>
          <path class="cls-1" d="m131.2927056,103.667665l-.1013447.1538979-.2361611.2890277-.1515522.2045716-.1013447.119177-.3031045.3397014-.3709775.4091432-.1180806.119177-.2026895.2036332c-.393292.3866215-.7029048.6531276-.9279087.8004567s-.4379208.2214628-.6406103.2214628c-.3031045,0-.5448442-.0994706-.7252192-.2984118-.1794453-.1980028-.2473184-.4335416-.2017597-.7056781.0334717-.1248074.0781005-.2439845.1348164-.3575311.0557861-.1135466.1403889-.2665061.252897-.4598169.1682881-.2496149.2752114-.4025744.3198403-.4598169.1469034-.1923724.3402952-.4222808.5820349-.6897253.2417397-.2655677.469533-.4982913.6833797-.6972325.2129169-.1989412.4379208-.3828679.674082-.553657-.0557861.0459817-.1180806.0685033-.1850239.0685033-.1580606.0337825-.292877.0506737-.405379.0506737-.2352314,0-.421185-.0788257-.5560014-.238354l-.5225298.6127763-.1013447.1360683-.4890581.6812797c-.0446289.0450433-.0846089.0797641-.1180806.1022858-.0111572,0-.0223144.0056304-.0334717.0168912l-.0511373-.0516121.0167358-.0694417.0678731-.086333.252897-.3640999.1850239-.2599373.152482-.2421077.6238745-.9346481.0669433-.1257458.1348164-.219586c.2250039.2299084.5290381.3453318.9111729.3453318h.1850239l.1859537-.0563041.3375059-.0741337.4723223-.1294994-.2705626.3068574-.252897.2730749-.3877134.4935993-.674082.9196337c-.4276934.6137147-.7056941,1.0341187-.8349319,1.261212s-.1943216.4091432-.1943216.5452114c0,.4541864.1515522.6531276.4555864.5958851.2129169-.0675649.4779009-.238354.7921626-.5104906l.2026895-.2045716.1348164-.1529595.32077-.305919.2863686-.3237486.1515522-.1529595.3709775-.4935993.1180806-.1707891h.0846089c.0111572.0572425.0111572.0966554,0,.119177Z"/>
          <path class="cls-1" d="m139.7749814,101.5065257l-.1180806.2214628-1.6363921-.0009384-1.9329882,2.9156142-.3923622.525505c-.1357462.1933108-.1813048.4025744-.1357462.6287292.0334717.1360683.1097127.2374156.2277932.305919.1171508.0675649.2501077.0844562.3960813.0506737.0446289-.0225216.104134-.0516121.176656-.0853946.0734517-.0337825.2054788-.1248074.3960813-.2721365l.1357462-.119177.1850239-.1529595.32077-.3575311.4379208-.4429256.1692178-.2045716.2361611-.2890277.3709775-.4429256.1348164-.2036332h.0669433c.0455586.0337825.0511373.0788257.0176656.1360683l-.0511373.0844562-.0846089.1022858-.0836791.1022858-.252897.3406398-.3886431.4429256-.4890581.5273818-.5057939.5104906-.1180806.119177-.2696328.2214628c-.2473184.2036332-.469533.3425166-.6657141.4166504-.1971109.0741337-.4081683.1107314-.6331722.1107314-.2361611,0-.4379208-.0994706-.6071387-.2974734-.1682881-.1989412-.252897-.4232192-.252897-.6728341,0-.0563041.0148763-.1585899.0427693-.305919s.1097127-.3115494.2445291-.4935993l.2036192-.3049806,1.9199714-2.8959078-.8256342.0009384.0678731-.2214628.9260429-.0009384.912109-1.3606825c.112502-.1595283.1943216-.2955966.2445291-.4091432.0502075-.1126082.076241-.214894.076241-.305919h1.0794609c.0223144.1248074.0167358.233662-.0167358.324687s-.1171508.2449229-.2501077.4607553l-.8693333,1.298748,1.5908335-.0075072Z"/>
          <path class="cls-1" d="m144.9528608,103.6507737l-.0846089.1529595-.0502075.1022858-.2361611.3068574-.1013447.119177-.1859537.2036332-.2696328.3068574-.2361611.238354-.2863686.2890277-.573667.5283202-.674082.425096c-.2361611.1585899-.4788307.238354-.7252192.238354-.2259337,0-.4109576-.0685033-.5569312-.2045716-.1459736-.1370067-.2194253-.324687-.2194253-.5639795,0-.0797641.0083679-.1904956.0251037-.3321942.0176656-.1426371.0957661-.3359478.2361611-.5808707s.4137469-.6108995.8181961-1.1007453c.2584756-.305919.4779009-.6015155.6573462-.8849129.1459736-.2270932.2361611-.3969439.2705626-.5104906.0781005-.1933108.1059936-.3519007.0836791-.4767081-.0557861-.1473291-.1747964-.1989412-.3551715-.1529595-.180375.0563041-.3216998.1079162-.4230446.1529595-.1022745.0450433-.2603351.1473291-.4741818.305919l-.5587907.4598169c-.5188107.4879689-.8860691.8971121-1.1008456,1.2255527l-1.681021,2.5515144-1.1742973-.0075072,5.3126958-7.9660925c.1682881-.2496149.252897-.4476176.252897-.5958851v-.1867419h1.1482638c.0325419.091025.0492777.1642203.0492777.2205244,0,.1360683-.1022745.3406398-.304964.6127763l-2.8497397,4.2725432.2315123-.224278c.4509376-.4072664.8079686-.6906637,1.0729526-.8492536.2640542-.1576515.5652991-.2768285.9037347-.3556543.112502-.0225216.1971109-.0347209.252897-.0347209.2250039,0,.405379.0685033.5411251.2045716.1348164.1360683.2026895.3068574.2026895.5104906,0,.2496149-.0678731.4907841-.2026895.7235078s-.4379208.6381132-.9102431,1.2171071l-.2872984.3913135c-.1459736.2045716-.2891579.4147736-.4295529.6296676-.140395.2158324-.2222146.3725455-.2445291.4682625-.0223144.0966554-.0334717.1679739-.0334717.2130172,0,.2158324.1115722.3237486.3365761.3237486.1357462,0,.2817198-.0403513.4388506-.119177.1571308-.0797641.3653989-.2327236.6238745-.4598169l.2361611-.2045716.252897-.238354.2361611-.238354.2361611-.2552453c.112502-.1135466.1961811-.2092636.252897-.2890277.112502-.1360683.2138467-.2721365.3040342-.4091432.0446289-.0788257.0781005-.1294994.100415-.1529595.0232442-.0225216.0567159-.0450433.1013447-.0675649l.0511373.0675649Z"/>
          <path class="cls-1" d="m149.1349584,103.6854946v.1360683l-1.2905183,1.480798-.2882282.2721365c-.3737668.3181182-.6908178.544273-.9511529.6803413-.2603351.1370067-.5662289.238354-.9167515.3068574-.1357462.0225216-.2491779.0337825-.3393654.0337825-.0678731,0-.2147765-.014076-.4416399-.0422281-.2259337-.0281521-.4267636-.1520211-.6024898-.3734839-.1757262-.2205244-.2631244-.4945377-.2631244-.8229783,0-.1463907.0055786-.2599373.0167358-.338763s.0502075-.1980028.1180806-.3565927c.1571308-.3847447.3960813-.7769967.7168513-1.1786326.3198403-.401636.7084834-.7694894,1.1631401-1.1026221.4555864-.334071.8693333-.5686715,1.2403108-.7047397.4602353-.1698507.8256342-.2543069,1.0961968-.2543069.0669433,0,.2073383.0197064.421185.0591193.2138467.0403513.32077.1895572.32077.4494944,0,.1585899-.0567159.3284406-.1692178.5086137-.1236592.1585899-.2919472.3228102-.5057939.4926609-.28079.214894-.6350317.4288496-1.0627251.6437436-.1906025.091025-.3905027.1754811-.597841.2552453-.2082681.0788257-.397011.1407603-.5652991.1858035l-.6406103.1867419c-.0223144.0112608-.0901875.1473291-.2026895.4072664-.1459736.3162414-.2305825.525505-.252897.6277908-.0223144.1013474-.0334717.1811115-.0334717.2374156,0,.4410488.2975258.6615732.8935073.6615732.1906025,0,.4072385-.0572425.6489782-.1707891s.4806902-.2665061.7168513-.4598169l.3375059-.2890277.1515522-.1698507.7419551-.8342392.3542417-.4260344.1348164-.2036332.0511373.0337825v.0685033Zm-.6917476-1.4517075c.0223144-.0450433.0390503-.1013474.0502075-.1689123.0111572-.0563041.0176656-.1069778.0176656-.1520211,0-.1576515-.0483479-.2505533-.1441141-.2787053-.0948364-.0290905-.1543415-.0431665-.176656-.0431665-.112502,0-.2110574.02346-.2947365.0675649-.0846089.0459817-.1943216.1248074-.329138.2374156-.2138467.1801731-.3877134.3321942-.5225298.4560633-.1357462.123869-.2872984.2702597-.4555864.439172-.2361611.2364772-.4723223.530197-.7084834.8792824l-.2194253.3040422.2361611-.0337825c.0901875-.0112608.1515522-.0225216.1859537-.0337825.0557861-.0225216.1115722-.0450433.1682881-.0675649.2919472-.1013474.5420549-.2026948.750323-.3040422s.4156064-.2364772.6238745-.406328c.2082681-.1689123.3765561-.3209334.5057939-.4560633s.2333718-.2815205.3124021-.439172Z"/>
          <path class="cls-1" d="m164.025197,98.9193521c-.0557861.091025-.1013447.1585899-.1348164.2036332-.0557861.0797641-.112502.1426371-.1682881.1876804-.1469034.1698507-.2872984.3002886-.4221148.3913135s-.3086831.1698507-.5225298.238354-.3821348.091025-.5057939.0685033c-.1459736-.0459817-.2361611-.0853946-.2696328-.119177v-.0685033c.0557861-.0225216.1961811-.0168912.421185.0168912.1013447.02346.2222146,0,.3626096-.0675649.140395-.0685033.3058938-.2045716.497426-.4091432.1459736-.1473291.2668435-.3575311.3626096-.6296676s.1431843-.516121.1431843-.7319534c0-.305919-.0901875-.5836859-.2696328-.8342392-.2696328-.3969439-.6573462-.5949467-1.1631401-.5949467-.5969112,0-1.1082838.2890277-1.5350474.8680216-.2696328.3631615-.4044492.8051487-.4044492,1.3269001,0,.4541864.1059936.964677.3198403,1.5324101l.0678731.1360683.3375059.8004567c.2919472.6916021.4379208,1.2199223.4379208,1.5821454,0,.5789939-.0901875,1.0641476-.2696328,1.4554611-.180375.3922519-.5225298.8089023-1.0292535,1.2518279-.2017597.1698507-.4323422.3228102-.6908178.4588785-.2594053.1360683-.5652991.2618141-.9195408.3744223-.3542417.1135466-.6824499.1933108-.9864841.238354-.3031045.0450433-.6015601.0685033-.8935073.0685033-.9223301,0-1.64476-.2355388-2.1672898-.7066165s-.7847244-1.0866692-.7847244-1.8467746c0-.7488446.2194253-1.4320011.6582759-2.0513462.4379208-.6184068,1.0506381-1.0857308,1.8381518-1.403849.4044492-.1811115.8209854-.2721365,1.247749-.2721365.4834795,0,.8572463.1219922,1.1222303.3659767.2631244.2439845.3960813.5808707.3960813,1.0125355,0,.1473291-.0176656.3002886-.052067.4598169-.0697326.2608757-.1775857.4964145-.3226296.7056781-.1450438.210202-.3505226.406328-.6173661.5874395-.1738667.1248074-.3133319.2073868-.4183957.2467997-.104134.0403513-.1794453.0544273-.2259337.0422281v-.1182386l.2482481-.119177c.1292378-.0685033.2501077-.1623435.3626096-.2815205.1115722-.119177.2091979-.2862125.2919472-.5020449l.1236592-.305919c.0353312-.1707891.0529968-.329379.0529968-.4767081v-.1707891c-.0223144-.0788257-.0334717-.1360683-.0334717-.1698507-.0790303-.3171798-.2398802-.5705483-.4825497-.7572902-.2435993-.1876804-.533687-.2805821-.8721226-.2805821-.4295529,0-.8758417.1585899-1.3388663.4757697-.180375.1482675-.3412249.2984118-.4825497.4513712s-.2677733.3378246-.381205.553657c-.2482481.4194656-.3719073.8398696-.3719073,1.2593352,0,.9534162.2677733,1.6994456.8033198,2.2380882.5355465.539581,1.2654146.8089023,2.1896042.8089023.1580606,0,.3189105-.0197064.4825497-.0600577.1636392-.0394129.329138-.0985322.4983558-.1782963.4174659-.1820499.7754267-.4232192,1.0748121-.7235078.2984556-.3002886.509513-.6268524.6341019-.978753.1236592-.3519007.1859537-.6925405.1859537-1.0209811,0-.4879689-.1636392-1.1007453-.4890581-1.838329l-.1348164-.3406398-.2361611-.5958851c-.180375-.4767081-.2696328-.9365249-.2696328-1.3785122,0-.8849129.4156064-1.628127,1.247749-2.2296426.1682881-.1135466.317051-.210202.4472185-.2899661.128308-.0788257.2891579-.1529595.4797604-.2214628.4276934-.1473291.8154068-.2205244,1.1640699-.2205244.2250039,0,.4100278.0225216.5569312.0675649.3365761.091025.6071387.2721365.8088984.5452114.2026895.2721365.3040342.5846243.3040342.9355865,0,.3519007-.1013447.6981709-.3040342,1.0388107Z"/>
          <path class="cls-1" d="m168.8320988,103.6001v.0675649l-.0502075.0685033-.0846089.119177-.2863686.3575311-.0344014.0506737c-.4946367.6127763-.8823501,1.0613324-1.1631401,1.3447297-.4165362.3856831-.7707779.6503124-1.0627251.7920111s-.5560014.1951876-.7921626.1614051c-.2138467-.0347209-.3802752-.1173002-.497426-.2477381-.1180806-.1313762-.1775857-.2880893-.1775857-.4710777,0-.0563041.0195251-.1538979.0595052-.2909045.0390503-.1360683.0836791-.2449229.1348164-.324687.0502075-.0797641.2380207-.3425166.5643693-.7873191l.152482-.2224012c.1115722-.2280316.1850239-.4504328.2184955-.6672036.0678731-.2730749-.0725219-.3875599-.4193255-.3415782-.4035194.0572425-.7400955.1848651-1.0087986.3809911-.1227294.0929018-.2296528.191434-.3189105.2955966-.0901875.1041626-.2129169.2711981-.3700478.5029833l-1.3741975,2.0541614h-1.1798759l5.3963749-8.0683783c.1348164-.2036332.2026895-.3744223.2026895-.5104906v-.1698507h1.0971265c.0102275.0450433.0158061.1079162.0158061.1876804,0,.1933108-.0715922.3875599-.2147765.5808707l-3.1965433,4.8393378c.2482481-.0797641.457446-.1614051.6266638-.2477381.1692178-.0853946.4165362-.2533685.7438146-.5039217l.2175658-.1538979.5532121-.4279112.3858538-.2561837c.1450438-.1022858.2621946-.1764195.3514524-.2224012.0334717-.0225216.1171508-.0563041.2510374-.1022858.2008299-.0450433.329138-.0741337.3858538-.0853946.0892578-.0112608.1673583-.0056304.2343016.0168912.1338866.0347209.1785155.1248074.1338866.2721365l-.0678731.119177c-.1682881.3181182-.3198403.4767081-.4546567.4767081-.0455586,0-.0846089-.0168912-.1180806-.0506737l-.0678731-.119177c-.0334717-.0337825-.1348164-.0685033-.3031045-.1022858-.1013447,0-.1971109.0225216-.2872984.0685033l-.2361611.119177-.1515522.0506737c-.2361611.1248074-.5560014.3237486-.9613804.5958851l-.3375059.2552453-.2352314.1529595c.1227294-.0525505.2380207-.0853946.344944-.0985322.1069233-.014076.2222146-.0206448.3458738-.0206448.3263487,0,.5652991.0431665.7168513.128561s.2333718.1801731.2445291.2824589c.0111572.1032242.0167358.1595283.0167358.1707891,0,.0459817.0055786.0919634.0167358.1370067,0,.1604667-.0901875.3941287-.2696328.7019245-.2361611.3762991-.4500078.7244462-.6406103,1.0444412-.0678731.1022858-.1069233.2224012-.1180806.3594079,0,.1933108.0892578.2909045.2677733.2909045.0901875,0,.1515522-.0056304.1850239-.0168912.0446289-.0112608.1506225-.0741337.3189105-.1876804.0334717-.0225216.100415-.0741337.2008299-.1529595.1450438-.1248074.2631173-.2270932.3523822-.3068574l.2854389-.2721365.100415-.1022858.3523822-.4082048.369118-.4082048.0502075-.1022858c.0557861-.0685033.1171508-.1416987.1840941-.2214628s.1227294-.1557747.1673583-.2299084c.0455586-.0731953.0957661-.1276226.1515522-.1614051l.0167358-.0168912c.0223144,0,.0446289.0112608.0669433.0337825Z"/>
          <path class="cls-1" d="m173.9923126,101.5065257c0,.1811115-.0251037.3350094-.076241.4598169-.0502075.1248074-.1933918.3565927-.4295529.6972325l-3.2551187,4.9022108-.32077.4082048c-.7531123.9421554-1.6577768,1.5549317-2.7149233,1.838329-.4379208.1248074-.8321426.1876804-1.1808057.1876804h-.5225298c-.3375059-.0572425-.5904028-.1557747-.7586909-.2927813-.1682881-.1379451-.252897-.2937197-.252897-.4663857,0-.0459817.0195251-.1313762.0585754-.2580605.03998-.1266842.1385355-.224278.2956663-.2927813.0334717-.0121992.0669433-.0178296.1013447-.0178296h.0836791c.2026895,0,.32077.0750721.3542417.224278v.1379451l-.0846089.1041626c-.0446289.0694417-.0669433.1210538-.0669433.1557747-.0557861.2299084.0781005.4025744.4044492.5179978l.1348164.0516121h.2184955c.2017597,0,.4713925-.0544273.8079686-.1623435s.6685034-.301227.9939223-.5789939c.3254189-.2787053.7075536-.7075549,1.1445447-1.2874872l.3031045-.4269728.0344014-.0675649,1.6233754-2.4135693c-.2463886.305919-.5030046.5621026-.7717077.7657358-.1115722.091025-.2380207.1904956-.3774859.2984118s-.2370909.1782963-.292877.2130172c-.4249041.238354-.738236.3575311-.9390659.3575311-.2343016,0-.4276934-.0760105-.5783159-.22897s-.2268635-.3528391-.2268635-.6024539v-.2036332c0-.123869.0344014-.2543069.1032043-.3894367.0688029-.1360683.128308-.2552453.1794453-.3565927.052067-.1013474.1236592-.22897.2147765-.3819295.0911173-.1520211.2054788-.324687.3430845-.5170594l.9706781-1.48549c.1906025-.296535.304964-.4851537.3440143-.5649179s.0474182-.1876804.0251037-.324687h1.2263643c0,.1585899-.0334717.301227-.100415.4260344-.0223144.0337825-.1115722.1754811-.268703.4260344l-1.1389661,1.7247824-.3244891.4401104-.0846089.1867419-.0855387.1360683-.1710774.3903751c-.0678731.1248074-.1134317.2599373-.1366759.4072664-.0223144.123869.0027893.2205244.0753112.2880893.0734517.0685033.176656.091025.3114724.0675649.1571308-.0337825.2826495-.0731953.3784157-.119177.0948364-.0450433.2547565-.1595283.4788307-.3415782.1673583-.1135466.4249041-.3697303.7717077-.768551.1236592-.1370067.2463886-.2787053.3700478-.4269728.0557861-.0685033.100415-.1370067.1348164-.20551l1.1185112-1.6468951c.1134317-.1585899.2073383-.3087342.28079-.4494944.0743815-.1416987.116221-.2524301.128308-.3312558v-.2036332h1.1464043Z"/>
          <path class="cls-1" d="m184.7859923,103.6001v.0844562l-.0511373.1013474-.0678731.0675649-.2872984.3556543-.0511373.0844562-.2026895.2036332-.2547565.2702597-.2538267.2711981-.152482.1858035-.3384356.3218718c-.1692178.1576515-.3133319.2880893-.4323422.3894367-.1180806.1013474-.2054788.1745427-.2621946.219586-.3728371.2711981-.6657141.406328-.8804905.406328-.2482481.0225216-.4462888-.0394129-.5931921-.1848651-.1469034-.1463907-.2194253-.3537775-.2194253-.6230988v-.3368862l.1180806-.4044512-.2510374.2533685-.317051.3021654-.2501077.2533685c-.4118873.3584695-.7670588.5883779-1.0683037.6897253-.1217996.0337825-.2389504.0506737-.3495929.0506737-.2780007,0-.5039344-.0882098-.6759415-.2627525-.1720071-.1754811-.2584756-.4213424-.2584756-.7385222,0-.5649179.1738667-1.1138829.5225298-1.6450183.4044492-.6221604,1.0348321-1.2161687,1.8883593-1.7820249.2705626-.1689123.5401954-.3162414.8098281-.4410488.2696328-.123869.4890581-.200818.6573462-.22897.1692178-.0281521.2872984-.0422281.3542417-.0422281.292877,0,.5150916.0666265.6666438.200818.1515522.133253.216636.296535.1933918.4898457l.4053715-.6127763h1.1296759l-2.2937383,3.4092136-.1348164.2392924c-.0567159.1135466-.104134.2186476-.1431843.315303-.03998.0966554-.0595052.2017564-.0595052.315303,0,.2270932.1013447.3528391.3040342.3753607.0669433,0,.2194253-.0628729.4555864-.1876804.0781005-.0450433.1627094-.1079162.252897-.1867419.0223144-.0112608.1180806-.1022858.2863686-.2730749l.3375059-.3397014.3709775-.3922519.0669433-.0675649.1692178-.1876804.2696328-.305919.3542417-.4767081.1013447-.1360683.0846089-.0337825.0502075.0337825Zm-2.3439458-1.3250233c.0111572-.0459817.0167358-.1135466.0167358-.20551,0-.3181182-.1673583-.4785849-.5020749-.4785849-.2110574,0-.4425697.0947786-.6936071.2824589s-.6322424.5611642-1.1445447,1.1195133l-.2677733.3068574-.1338866.1538979-.3003151.4448024c-.1115722.1482675-.2259337.3162414-.3430845.5039217s-.1813048.2984118-.192462.3331326c-.088328.1820499-.1496927.338763-.1840941.4701393-.0325419.1304378-.0436991.2355388-.0325419.3162414.0325419.3303174.2101276.4954761.5308977.4954761.1217996,0,.2398802-.02346.3561012-.0685033.116221-.0459817.2659137-.1454523.4481483-.2993502.1831643-.1538979.4286232-.4072664.7391658-.7601054l.2361611-.2740133c.1236592-.1595283.2017597-.2618141.2361611-.3068574.1115722-.1482675.1794453-.2505533.2017597-.3077958l.3040342-.4616937.1850239-.2730749c.2473184-.3762991.3988706-.6127763.4555864-.7094317.0557861-.0966554.0846089-.1904956.0846089-.2815205Z"/>
          <path class="cls-1" d="m190.857379,103.667665l-.1180806.1538979-.1859537.2552453-.1348164.1698507-.2026895.2214628-.2696328.305919c-.2696328.3181182-.5225298.5789939-.7586909.7835655-.180375.1473291-.3151914.2552453-.4044492.3228102-.0901875.0685033-.2082681.1426371-.3542417.2214628-.3040342.1933108-.5290381.3181182-.6750118.3744223-.1459736.0572425-.3096128.0853946-.4890581.0853946-.2138467,0-.3821348-.0685033-.5057939-.2045716s-.1859537-.305919-.1859537-.5104906c0-.1022858.0232442-.2214628.0678731-.3575311s.1487629-.3368862.3124021-.6043307c.1627094-.2665061.4183957-.6099611.7670588-1.0294267l.252897-.3406398c.2138467-.2946582.4016599-.5639795.5652991-.8079639.1627094-.2439845.2445291-.4288496.2445291-.553657,0-.238354-.1190103-.3575311-.3551715-.3575311-.0344014,0-.0957661.0112608-.1859537.0337825-.304964.0685033-.6313126.2439845-.9809055.5264434l-.2705626.2036332-.1859537.1867419-.2705626.2543069-.3040342.2721365-2.1161525,3.1605371-1.1659294.009384,2.9510844-4.4086114c.112502-.1473291.1571308-.3237486.1348164-.5273818h1.1808057c0,.1135466-.0148763.2158324-.0427693.305919-.027893.091025-.0808898.1820499-.1599201.2721365l-.6406103.8342392.573667-.4935993.4890581-.4082048.0836791-.0685033.2696328-.1867419c.3942217-.238354.7651993-.3744223,1.1138624-.4082048.2919472-.0459817.5281084.0168912.7075536.1867419.180375.1698507.2538267.3800527.2194253.6296676-.0334717.2158324-.1097127.4288496-.2277932.6381132-.1180806.210202-.2724221.4513712-.4630246.7235078l-.3719073.4767081-.4546567.5958851c-.2696328.3856831-.4416399.6531276-.5141618.8004567-.0734517.1473291-.104134.2833973-.0929768.4082048,0,.1698507.0892578.2552453.2696328.2552453.0557861,0,.1180806-.0168912.1859537-.0506737.1794453-.0685033.3198403-.133253.421185-.196126.1013447-.0619345.28079-.196126.5392656-.3997591.0901875-.0797641.180375-.1642203.2705626-.2552453.1348164-.1248074.28079-.2787053.4379208-.4598169l.2872984-.3406398.1850239-.1867419c.0557861-.0797641.1180806-.1651587.1859537-.2561837.0669433-.0900866.1059936-.1529595.1180806-.1867419.0892578-.1135466.1571308-.1642203.2017597-.1529595l.0511373.0844562Z"/>
          <path class="cls-1" d="m198.8682623,97.6937994c.0223144.1698507.0139465.3115494-.0260335.425096-.0390503.1135466-.1431843.2899661-.3114724.5273818l-3.7785782,5.6857762c-.1682881.2374156-.3003151.453248-.3960813.6465588-.0948364.1933108-.1599201.3462702-.1933918.4598169s-.0567159.210202-.0678731.2890277c-.0111572.0797641-.0111572.1529595,0,.2214628.0344014.1473291.140395.2214628.32077.2214628.0334717,0,.0948364-.0112608.1850239-.0337825.2138467-.091025.3905027-.1933108.5318274-.3068574.140395-.1135466.3626096-.329379.6657141-.6465588l.3709775-.3913135.1013447-.0685033.1692178-.2214628.252897-.305919.3542417-.4429256c.0557861-.091025.100415-.1473291.1348164-.1698507.0111572,0,.0223144-.0056304.0334717-.0168912l.0669433.0516121-.0334717.0685033-.0334717.0685033-.0678731.1032242-.3542417.4476176-.2017597.2411693-.2026895.2411693-.1850239.2064484-.3040342.3275022c-.3709775.3894367-.6805904.6737725-.9279087.8520688-.2473184.1773579-.5281084.3124878-.84237.4044512-.0678731.0225216-.1636392.0337825-.2872984.0337825-.2017597,0-.3709775-.0694417-.5057939-.2083252-.1348164-.1379451-.2026895-.3068574-.2026895-.5029833.0223144-.2317852.0567159-.4401104.1013447-.625914l.1013447-.3819295-.5225298.5283202-.32077.3575311-.3375059.305919c-.2584756.238354-.5560014.4025744-.8935073.4935993-.1348164.0225216-.2305825.0337825-.2863686.0337825-.2705626,0-.5067237-.091025-.7084834-.2721365-.2026895-.1811115-.3040342-.4082048-.3040342-.6803413,0-.1595283.0065084-.2899661.0167358-.3922519.012087-.1013474.0511373-.2608757.1180806-.4757697.1580606-.511429.4360613-.9965827.8349319-1.4554611.3998003-.4598169.9697483-.9055577,1.7117034-1.3362841l.4890581-.2552453c.4927772-.2158324.878631-.3237486,1.1584912-.3237486.3356463,0,.5820349.1801731.738236.539581l.0511373.1351299,2.3141932-3.45238c.2277932-.3275022.3421547-.5649179.3421547-.7122469v-.2374156h1.1305982Zm-4.048211,4.5615709c.0223144-.2608757-.0167358-.448556-.1180806-.5621026-.1013447-.1126082-.252897-.1473291-.4546567-.1022858-.2138467.0572425-.4444292.1707891-.6917476.3406398-.3151914.2270932-.6638545.5452114-1.0459893.9534162-.1915323.1933108-.3765561.41102-.5560014.6550044-.180375.2449229-.3542417.5020449-.5234595.7751198-.1236592.2036332-.2240741.3913135-.3031045.5611642-.1348164.329379-.1859537.5846243-.1515522.7657358.0669433.3068574.2361611.4598169.5057939.4598169.1459736,0,.2752114-.0281521.3877134-.0844562.112502-.0572425.2305825-.1370067.3542417-.238354.1682881-.1370067.3653989-.3209334.5904028-.553657.2240741-.2327236.3821348-.4053896.4723223-.5189362.0446289-.0572425.0948364-.1248074.1515522-.2045716l.6917476-1.0725932c.2919472-.4307264.4769711-.7084933.5560014-.8333008s.1236592-.238354.1348164-.3406398Z"/>
          <path class="cls-1" d="m211.499164,98.9193521c-.0557861.091025-.1013447.1585899-.1348164.2036332-.0557861.0797641-.112502.1426371-.1682881.1876804-.1469034.1698507-.2872984.3002886-.4221148.3913135s-.3086831.1698507-.5225298.238354-.3821348.091025-.5057939.0685033c-.1459736-.0459817-.2361611-.0853946-.2696328-.119177v-.0685033c.0557861-.0225216.1961811-.0168912.421185.0168912.1013447.02346.2222146,0,.3626096-.0675649.140395-.0685033.3058938-.2045716.497426-.4091432.1459736-.1473291.2668435-.3575311.3626096-.6296676s.1431843-.516121.1431843-.7319534c0-.305919-.0901875-.5836859-.2696328-.8342392-.2696328-.3969439-.6573462-.5949467-1.1631401-.5949467-.5969112,0-1.1082838.2890277-1.5350474.8680216-.2696328.3631615-.4044492.8051487-.4044492,1.3269001,0,.4541864.1059936.964677.3198403,1.5324101l.0678731.1360683.3375059.8004567c.2919472.6916021.4379208,1.2199223.4379208,1.5821454,0,.5789939-.0901875,1.0641476-.2696328,1.4554611-.180375.3922519-.5225298.8089023-1.0292535,1.2518279-.2017597.1698507-.4323422.3228102-.6908178.4588785-.2594053.1360683-.5652991.2618141-.9195408.3744223-.3542417.1135466-.6824499.1933108-.9864841.238354-.3031045.0450433-.6015601.0685033-.8935073.0685033-.9223301,0-1.64476-.2355388-2.1672898-.7066165s-.7847244-1.0866692-.7847244-1.8467746c0-.7488446.2194253-1.4320011.6582759-2.0513462.4379208-.6184068,1.0506381-1.0857308,1.8381518-1.403849.4044492-.1811115.8209854-.2721365,1.247749-.2721365.4834795,0,.8572463.1219922,1.1222303.3659767.2631244.2439845.3960813.5808707.3960813,1.0125355,0,.1473291-.0176656.3002886-.052067.4598169-.0697326.2608757-.1775857.4964145-.3226296.7056781-.1450438.210202-.3505226.406328-.6173661.5874395-.1738667.1248074-.3133319.2073868-.4183957.2467997-.104134.0403513-.1794453.0544273-.2259337.0422281v-.1182386l.2482481-.119177c.1292378-.0685033.2501077-.1623435.3626096-.2815205.1115722-.119177.2091979-.2862125.2919472-.5020449l.1236592-.305919c.0353312-.1707891.0529968-.329379.0529968-.4767081v-.1707891c-.0223144-.0788257-.0334717-.1360683-.0334717-.1698507-.0790303-.3171798-.2398802-.5705483-.4825497-.7572902-.2435993-.1876804-.533687-.2805821-.8721226-.2805821-.4295529,0-.8758417.1585899-1.3388663.4757697-.180375.1482675-.3412249.2984118-.4825497.4513712s-.2677733.3378246-.381205.553657c-.2482481.4194656-.3719073.8398696-.3719073,1.2593352,0,.9534162.2677733,1.6994456.8033198,2.2380882.5355465.539581,1.2654146.8089023,2.1896042.8089023.1580606,0,.3189105-.0197064.4825497-.0600577.1636392-.0394129.329138-.0985322.4983558-.1782963.4174659-.1820499.7754267-.4232192,1.0748121-.7235078.2984556-.3002886.509513-.6268524.6341019-.978753.1236592-.3519007.1859537-.6925405.1859537-1.0209811,0-.4879689-.1636392-1.1007453-.4890581-1.838329l-.1348164-.3406398-.2361611-.5958851c-.180375-.4767081-.2696328-.9365249-.2696328-1.3785122,0-.8849129.4156064-1.628127,1.247749-2.2296426.1682881-.1135466.317051-.210202.4472185-.2899661.128308-.0788257.2891579-.1529595.4797604-.2214628.4276934-.1473291.8154068-.2205244,1.1640699-.2205244.2250039,0,.4100278.0225216.5569312.0675649.3365761.091025.6071387.2721365.8088984.5452114.2026895.2721365.3040342.5846243.3040342.9355865,0,.3519007-.1013447.6981709-.3040342,1.0388107Z"/>
          <path class="cls-1" d="m216.2549286,103.7023858l-.0846089.1529595-.2194253.2721365-.1348164.1707891-.5225298.5949467c-.5169511.5902547-.9251194,1.0050283-1.2226453,1.2433823-.2984556.2374156-.5820349.3847447-.8516677.4419872-.1348164.0225216-.2305825.0337825-.2872984.0337825-.5504228,0-.8256342-.3171798-.8256342-.9524778,0-.1707891.0251037-.3209334.0753112-.4513712.0511373-.1304378.1320271-.2524301.2445291-.3659767l-.2361611.2580605-.252897.2749517-.3542417.3265638c-.3709775.343455-.674082.5818091-.9102431.7131853s-.4611651.1970644-.6750118.1970644c-.2919472,0-.5169511-.0853946-.674082-.2571221s-.2361611-.3894367-.2361611-.6531276c0-.1717275.0901875-.4119584.2696328-.7206925l.1515522-.2580605.4955665-.773243,1.1408256-1.6778623c.1571308-.238354.2194253-.448556.1850239-.6296676v-.1360683h1.1808057v.2036332c0,.1360683-.0223144.2552453-.0678731.3575311s-.1078531.2036332-.1868834.305919l-1.1278089,1.7369816-.3877134.5958851-.0846089.0853946-.0334717.0853946-.2194253.3744223c-.1236592.1698507-.1747964.3565927-.152482.5611642,0,.1022858.0455586.1867419.1348164.2552453.0901875.0685033.1915323.091025.3040342.0685033.1682881-.0459817.3375059-.1426371.5057939-.2909045.0334717-.0337825.2305825-.2214628.5904028-.5630411l.6406103-.5977619.0660135-.0853946.0334717-.0853946.3793454-.5630411,1.1742973-1.7135216c.1236592-.1923724.1961811-.3734839.2194253-.544273v-.1867419h1.1464043c.0223144.1585899.0167358.2805821-.0167358.3659767-.0334717.0844562-.1450438.2693213-.3347166.5527186l-1.1389661,1.7266592-.4490781.63999-.0502075.119177-.1692178.2374156c-.0901875.1482675-.1459736.2787053-.1682881.3922519-.0455586.1585899-.0251037.2918429.0585754.3997591.0846089.1079162.2054788.1614051.3626096.1614051.1357462.02346.2761412-.0168912.4221148-.119177s.3486631-.2890277.6071387-.5611642l.4379208-.4429256.2361611-.2721365.1180806-.1707891.32077-.3228102.3375059-.4260344.1013447-.1360683.100415-.0337825c.0111572.0112608.0232442.0394129.0344014.0853946Z"/>
          <path class="cls-1" d="m222.3597869,103.667665l-.1180806.1538979-.1859537.2552453-.1348164.1698507-.2026895.2214628-.2696328.305919c-.2696328.3181182-.5225298.5789939-.7586909.7835655-.180375.1473291-.3151914.2552453-.4044492.3228102-.0901875.0685033-.2082765.1426371-.3542417.2214628-.3040342.1933108-.5290381.3181182-.6750118.3744223-.1459736.0572425-.3096128.0853946-.4890581.0853946-.2138467,0-.3821348-.0685033-.5057939-.2045716s-.1859537-.305919-.1859537-.5104906c0-.1022858.0232442-.2214628.0678731-.3575311s.1487629-.3368862.3124021-.6043307c.1627094-.2665061.4183957-.6099611.7670588-1.0294267l.252897-.3406398c.2138467-.2946582.4016599-.5639795.5652991-.8079639.1627094-.2439845.2445291-.4288496.2445291-.553657,0-.238354-.1190103-.3575311-.3551715-.3575311-.0344014,0-.0957661.0112608-.1859537.0337825-.304964.0685033-.6313126.2439845-.9809055.5264434l-.2705626.2036332-.1859537.1867419-.2705626.2543069-.3040342.2721365-2.1161525,3.1605371-1.1659294.009384,2.9510844-4.4086114c.112502-.1473291.1571308-.3237486.1348164-.5273818h1.1808057c0,.1135466-.0148763.2158324-.0427693.305919-.027893.091025-.0808898.1820499-.1599201.2721365l-.6406103.8342392.573667-.4935993.4890581-.4082048.0836791-.0685033.2696328-.1867419c.3942217-.238354.7651993-.3744223,1.1138624-.4082048.2919472-.0459817.5281084.0168912.7075536.1867419.180375.1698507.2538267.3800527.2194253.6296676-.0334717.2158324-.1097127.4288496-.2277932.6381132-.1180806.210202-.2724221.4513712-.4630246.7235078l-.3719073.4767081-.4546567.5958851c-.2696328.3856831-.4416399.6531276-.5141618.8004567-.0734517.1473291-.104134.2833973-.0929768.4082048,0,.1698507.0892578.2552453.2696328.2552453.0557861,0,.1180806-.0168912.1859537-.0506737.1794453-.0685033.3198403-.133253.421185-.196126.1013447-.0619345.28079-.196126.5392656-.3997591.0901875-.0797641.180375-.1642203.2705626-.2552453.1348164-.1248074.28079-.2787053.4379208-.4598169l.2872984-.3406398.1850239-.1867419c.0557861-.0797641.1180806-.1651587.1859537-.2561837.0669433-.0900866.1059936-.1529595.1180806-.1867419.0892578-.1135466.1571308-.1642203.2017597-.1529595l.0511373.0844562Z"/>
        </g>
      </g>
      <g>
        <path class="cls-1" d="m165.6895079,15.9926099l4.7134278-5.6864129-.1939364-.1664742-4.7329871,5.7131676c.0730368.0453345.1451532.0889039.2134957.1397194Z"/>
        <path class="cls-1" d="m164.9594161,15.560771l6.6961027-11.1791323-.2159851-.1297328-6.7116079,11.1995235c.0791117.0340473.1568468.0744117.2314903.1093416Z"/>
        <path class="cls-1" d="m163.3729021,15.0482033l1.5118704-8.6489475-.2464975-.044452-1.5143515,8.6566581c.0833497.0095221.1649426.0249433.2489786.0367414Z"/>
        <path class="cls-1" d="m164.1791603,15.2423148l3.2954922-9.1483236-.2409207-.0893684-3.301065,9.1678323c.0824713.0213202.1647125.0426404.2464934.0698597Z"/>
        <path class="cls-1" d="m166.3786863,16.5559932l6.4239708-5.4387453-.1633318-.195505-6.4520902,5.4604836c.0642926.0571791.1287694.1143117.1914512.1737667Z"/>
        <path class="cls-1" d="m149.892389,12.5805857l7.9790058,4.6485503c.0525609-.0689772.102905-.1383724.1577632-.2027975l-8.0079996-4.665783-.1287694.2200302Z"/>
        <path class="cls-1" d="m167.4950862,18.0192846l12.4439196-4.5328452-.083166-.2395389-12.4919621,4.5515178c.044043.0743653.090341.146501.1312085.2208663Z"/>
        <path class="cls-1" d="m179.1713601,16.5977046l-11.3929168,2.0457653c.0305627.0775703.0613472.1610396.0894707.2440445l11.344125-2.0375902-.040679-.2522196Z"/>
        <path class="cls-1" d="m166.9894893,17.2395407l8.9117782-5.156566-.1265143-.2222598-8.9445919,5.1770037c.0564229.0639606.1067289.1337739.1593279.2018221Z"/>
        <path class="cls-1" d="m162.4252646,14.9642695c.0409135,0,.0793418.004552.1193349.0054346L162.522555,0h-.2541291l.0204298,14.9697041c.046302,0,.0885462-.0054346.136409-.0054346Z"/>
        <path class="cls-1" d="m157.0667014,18.6611671l-13.8275184-2.4340812-.0449174.2517551,13.7836595,2.4254417c.0283035-.0798463.0581717-.1623867.0887763-.2431155Z"/>
        <path class="cls-1" d="m157.4952116,17.7848087l-7.6516058-2.8078585-.0894206.2381454,7.6061821,2.7937844c.0406834-.0766877.0885462-.149706.1348442-.2240713Z"/>
        <path class="cls-1" d="m168.067461,19.6069207c.0173042.0825404.0235632.1714907.0384283.2553781l20.5127558.001347v-.2539846l-20.5511841-.0027405Z"/>
        <path class="cls-1" d="m136.381355,19.6069207c.0173042.0825404.0235632.1714907.0384283.2553781l20.5127558.001347v-.2539846l-20.5511841-.0027405Z"/>
        <path class="cls-1" d="m160.1212688,15.4514295l-4.3035565-7.5257576-.2198007.1261098,4.2956868,7.5089894c.0752919-.0349299.149207-.0752943.2276705-.1093416Z"/>
        <path class="cls-1" d="m160.927527,15.1702256l-3.4918639-9.7725089-.2411127.0870924,3.4871275,9.7502597c.0802162-.0235962.1649426-.0421759.2458491-.0648432Z"/>
        <path class="cls-1" d="m161.7290909,15.011462l-1.5105317-8.6566581-.251924.044452,1.5119124,8.6489475c.0824713-.0117981.1649426-.0272193.2505434-.0367414Z"/>
        <path class="cls-1" d="m159.3637479,15.8610656l-5.0988154-6.1246153-.1977562.1633156,5.0799465,6.0991611c.0721164-.0476105.1467179-.0929914.2166252-.1378614Z"/>
        <path class="cls-1" d="m158.6745235,16.3727043l-12.2072669-10.3680815-.1624574.196434,12.1811724,10.3476438c.0604728-.0625672.1208996-.1188172.1885518-.1759963Z"/>
      </g>
    </g>
    <rect class="cls-2" width="325" height="110"/>
  </g>
</svg>